<svg width="348" height="348" viewBox="0 0 348 348" fill="none" xmlns="http://www.w3.org/2000/svg">
<path opacity="0.04" d="M182.056 262.081C239.882 262.081 286.759 215.204 286.759 157.378C286.759 99.5525 239.882 52.6758 182.056 52.6758C124.231 52.6758 77.354 99.5525 77.354 157.378C77.354 215.204 124.231 262.081 182.056 262.081Z" fill="black"/>
<path d="M238.659 68.0055L232.157 73.4062L225.655 68.0055C223.287 66.0401 221.918 63.1195 221.918 60.0429V51.3623L232.161 45.1992L242.403 51.3623V60.0429C242.397 63.1229 241.028 66.0401 238.659 68.0055Z" stroke="black" stroke-width="2" stroke-miterlimit="10" stroke-linecap="round" stroke-linejoin="round"/>
<path d="M226.777 58.6101L230.07 61.9032L237.721 54.256" stroke="black" stroke-width="2" stroke-miterlimit="10" stroke-linecap="round" stroke-linejoin="round"/>
<path d="M252.475 92.7773H220.406V110.519H252.475V92.7773Z" stroke="black" stroke-width="2" stroke-miterlimit="10" stroke-linecap="round" stroke-linejoin="round"/>
<path d="M246.171 99.0821H214.102V116.824H246.171V99.0821Z" fill="black"/>
<path d="M231.909 104.321C229.687 102.758 228.202 104.548 228.249 105.522C228.278 106.084 229.097 106.604 230.301 107.363C231.389 108.051 231.9 108.161 232.07 108.709C232.253 109.289 231.934 109.98 231.503 110.339C230.781 110.941 229.148 110.843 228.142 109.914" stroke="white" stroke-width="2" stroke-miterlimit="10"/>
<path d="M230.135 101.648V103.707" stroke="white" stroke-width="2" stroke-miterlimit="10"/>
<path d="M230.135 110.712V112.77" stroke="white" stroke-width="2" stroke-miterlimit="10"/>
<path d="M168.745 84.5739C172.787 84.5739 176.064 81.2967 176.064 77.2546C176.064 73.2122 172.787 69.9351 168.745 69.9351C164.703 69.9351 161.426 73.2122 161.426 77.2546C161.426 81.2967 164.703 84.5739 168.745 84.5739Z" fill="black"/>
<path d="M170.407 74.5512C168.326 73.0871 166.936 74.7636 166.98 75.6754C167.007 76.2008 167.774 76.6878 168.902 77.3991C169.92 78.0424 170.398 78.1457 170.557 78.6592C170.728 79.2023 170.43 79.8487 170.026 80.1851C169.35 80.7489 167.821 80.6571 166.88 79.7868" stroke="white" stroke-width="2" stroke-miterlimit="10"/>
<path d="M168.745 72.0482V73.9755" stroke="white" stroke-width="2" stroke-miterlimit="10"/>
<path d="M168.745 80.5334V82.4607" stroke="white" stroke-width="2" stroke-miterlimit="10"/>
<path d="M169.778 62.1143V66.3759" stroke="black" stroke-width="2" stroke-miterlimit="10" stroke-linecap="round" stroke-linejoin="round"/>
<path d="M179.886 62.1143V72.8275" stroke="black" stroke-width="2" stroke-miterlimit="10" stroke-linecap="round" stroke-linejoin="round"/>
<path d="M189.992 62.1143V72.8275" stroke="black" stroke-width="2" stroke-miterlimit="10" stroke-linecap="round" stroke-linejoin="round"/>
<path d="M194.77 75.9027H178.328V80.4655H194.77V75.9027Z" fill="black"/>
<path d="M179.886 48.2578L164.699 58.2125H195.074L179.886 48.2578Z" stroke="black" stroke-width="2" stroke-miterlimit="10" stroke-linecap="round" stroke-linejoin="round"/>
<path d="M235.058 293.204C235.779 291.26 235.636 288.939 235.32 286.94C234.566 282.21 234.368 277.374 234.977 272.612C235.283 270.223 235.748 267.79 236.523 265.503C237.274 263.294 238.137 261.116 238.576 258.815C238.667 258.339 238.739 257.86 238.79 257.377C239.235 253.116 236.961 249.024 239.718 245.258C241.736 242.499 244.571 241.575 245.604 241.289C245.712 242.655 245.825 244.021 245.933 245.391C246.188 245.405 247.072 245.479 247.785 246.186C248.173 246.57 248.36 246.988 248.448 247.243C248.734 246.988 250.824 246.363 251.629 246.312C252.462 246.258 253.169 246.339 253.539 246.526C253.648 247.073 253.175 249.004 253.043 249.411C252.74 250.339 251.616 252.484 251.164 252.908C250.729 254.383 250.511 255.95 251.157 258.353C251.704 260.388 252.689 261.404 254.134 263.447C256.802 267.226 258.688 271.525 259.66 276.048C260.169 278.417 260.431 280.84 260.472 283.263C260.502 285.238 259.898 288.089 260.883 289.907C261.056 290.227 261.505 291.052 262.205 291.165C263.415 291.355 264.625 289.306 265.05 288.585C265.756 287.385 266.654 285.394 266.966 280.847C267.16 278.047 266.868 278.101 267.031 274.366C267.133 272.076 267.218 270.308 267.694 268.014C268.574 263.753 270.497 259.681 275.255 258.815C275.581 260.572 274.079 262.06 273.046 263.522C269.797 268.127 270.857 274.335 270.732 279.973C270.613 285.391 268.815 294.882 262.946 297.173C261.525 297.727 259.914 298.033 258.389 298.023C250.185 297.972 242.025 297.649 233.821 297.669C233.594 297.669 233.356 297.669 233.145 297.574C232.645 297.346 232.513 296.656 232.727 296.15C232.941 295.644 233.39 295.287 233.828 294.957C234.396 294.522 234.79 293.921 235.058 293.204Z" stroke="black" stroke-width="2" stroke-miterlimit="10" stroke-linecap="round" stroke-linejoin="round"/>
<path d="M252.051 273.601C250.97 274.07 247.684 275.664 245.726 279.413C242.882 284.86 245.24 290.261 245.556 290.95C243.222 292.004 240.884 293.057 238.549 294.114" stroke="black" stroke-width="2" stroke-miterlimit="10" stroke-linecap="round" stroke-linejoin="round"/>
<path d="M240.292 271.532L239.819 285.479" stroke="black" stroke-width="2" stroke-miterlimit="10" stroke-linecap="round" stroke-linejoin="round"/>
<path d="M242.25 251.274L234.45 247.185" stroke="black" stroke-width="2" stroke-miterlimit="10" stroke-linecap="round" stroke-linejoin="round"/>
<path d="M242.25 253.517H231.983" stroke="black" stroke-width="2" stroke-miterlimit="10" stroke-linecap="round" stroke-linejoin="round"/>
<path d="M247.014 252.045H257.091" stroke="black" stroke-width="2" stroke-miterlimit="10" stroke-linecap="round" stroke-linejoin="round"/>
<path d="M246.858 254.319L257.244 258.081" stroke="black" stroke-width="2" stroke-miterlimit="10" stroke-linecap="round" stroke-linejoin="round"/>
<path d="M250.596 294.471C251.293 294.24 253.196 293.513 254.64 291.552C256.326 289.265 256.255 286.838 256.214 286.159" stroke="black" stroke-width="2" stroke-miterlimit="10" stroke-linecap="round" stroke-linejoin="round"/>
<path d="M107.73 298.043L124.073 207.305H130.16L114.348 298.043H107.73Z" fill="black"/>
<path d="M175.229 298.043L165.543 237.041L161.295 248.256L168.612 298.043H175.229Z" fill="black"/>
<path d="M113.377 205.439L156.877 205.266L153.048 213.241L113.377 213.762V205.439Z" fill="black"/>
<path d="M208.59 290.818C210.562 290.869 214.213 290.27 213.041 287.46C211.87 284.649 209.586 288.527 208.59 290.818ZM208.59 290.818C209.088 289.232 209.521 285.975 207.273 285.643C205.024 285.31 207.214 288.954 208.59 290.818Z" stroke="black" stroke-width="2" stroke-linecap="round" stroke-linejoin="round"/>
<path d="M160.593 292.923C162.363 293.214 165.727 293.128 165.02 290.451C164.313 287.773 161.775 290.983 160.593 292.923ZM160.593 292.923C161.239 291.556 162.033 288.677 160.049 288.098C158.065 287.519 159.585 291.073 160.593 292.923Z" stroke="black" stroke-width="2" stroke-linecap="round" stroke-linejoin="round"/>
<path d="M139.031 111.787C135.896 112.049 132.412 109.887 131.354 109.043C131.354 109.043 132.279 111.968 134.476 113.558C136.675 115.148 139.031 115.208 139.031 115.208V111.787Z" fill="black"/>
<path d="M128.965 117.072H116.644C114.429 117.127 110.096 118.954 110.491 125.829C110.783 130.924 111.565 144.082 112.192 154.588C112.514 159.973 116.974 164.172 122.368 164.172H150.876C149.188 162.084 146.825 157.056 150.876 153.645L131.742 153.063C130.126 153.014 128.769 151.834 128.496 150.241L124.758 128.46" stroke="black" stroke-width="2" stroke-linecap="round" stroke-linejoin="round"/>
<path d="M128.919 116.92C129.423 118.506 131.52 123.515 136.501 123.337C141.48 123.159 143.002 118.865 143.002 117.606H149.76C150.811 117.509 153.372 118.521 155.207 123.337C157.041 128.153 161.195 138.976 163.042 143.786" stroke="black" stroke-width="2" stroke-linecap="round" stroke-linejoin="round"/>
<path d="M160.329 156.087L163.996 139.07C164.728 140.026 167.856 141.65 174.507 140.504V154.474" stroke="black" stroke-width="2" stroke-linecap="round" stroke-linejoin="round"/>
<path d="M165.56 140.204L166.91 132.106L164.281 120.173C164.731 119.581 165.887 118.752 166.91 120.173C167.933 121.593 168.377 123.133 168.472 123.724L172.308 114.988C172.663 113.898 174.155 112.047 177.28 113.354C180.405 114.661 180.24 119.107 179.766 121.167L173.444 132.745V140.701" stroke="black" stroke-width="2" stroke-linecap="round" stroke-linejoin="round"/>
<path d="M170.136 122.858C171.012 123.82 172.585 126.243 171.867 128.243" stroke="black" stroke-width="2" stroke-linecap="round" stroke-linejoin="round"/>
<path d="M171.976 120.332C172.891 120.302 175.107 120.75 176.642 122.773" stroke="black" stroke-width="2" stroke-linecap="round" stroke-linejoin="round"/>
<path d="M173.851 120.593L176.031 115.491" stroke="black" stroke-width="2" stroke-linecap="round" stroke-linejoin="round"/>
<path d="M175.377 121.422L177.339 118.674" stroke="black" stroke-width="2" stroke-linecap="round" stroke-linejoin="round"/>
<path d="M148.722 130.31L151.6 136.555C153.157 139.932 150.69 143.786 146.971 143.786H146.639" stroke="black" stroke-width="2" stroke-linecap="round" stroke-linejoin="round"/>
<path d="M149.354 156.304H160.153L166.903 153.919C169.365 153.09 175.002 152.868 177.844 158.608C180.686 164.349 180.922 165.026 180.686 164.647" stroke="black" stroke-width="2" stroke-linecap="round" stroke-linejoin="round"/>
<path d="M159.214 164.292C160.762 164.668 166.926 161.213 167.968 160.384C168.986 160.834 171.25 162.246 172.16 164.292" stroke="black" stroke-width="2" stroke-linecap="round" stroke-linejoin="round"/>
<path d="M171.573 159.868C172.365 160.362 174.117 161.793 174.792 163.571" stroke="black" stroke-width="2" stroke-linecap="round" stroke-linejoin="round"/>
<path d="M174.507 159.868C175.299 160.362 177.051 161.793 177.725 163.571" stroke="black" stroke-width="2" stroke-linecap="round" stroke-linejoin="round"/>
<path d="M89.2627 164.292H284.278" stroke="black" stroke-width="2" stroke-linecap="round" stroke-linejoin="round"/>
<path d="M260.517 164.179H252.649C251.371 164.179 250.334 163.142 250.334 161.864V150.34H262.831V161.862C262.831 163.142 261.794 164.179 260.517 164.179Z" fill="black"/>
<path d="M263.9 158.558H262.831V153.179H263.9C265.385 153.179 266.589 154.383 266.589 155.868C266.589 157.354 265.385 158.558 263.9 158.558Z" stroke="black" stroke-width="2" stroke-miterlimit="10"/>
<path d="M253.111 158.558L257.161 154.508" stroke="white" stroke-width="2" stroke-miterlimit="10"/>
<path d="M255.136 160.971L259.186 156.921" stroke="white" stroke-width="2" stroke-miterlimit="10"/>
<path d="M254.606 139.626C253.671 140.591 253.148 141.935 254.201 143.011C254.59 143.409 255.062 143.738 255.363 144.208C256.173 145.474 255.272 146.857 254.449 147.841" stroke="black" stroke-width="2" stroke-miterlimit="10"/>
<path d="M257.328 143.833C258.624 144.728 258.746 145.695 258.749 146.165C258.753 147.079 258.247 147.774 257.328 148.838" stroke="black" stroke-width="2" stroke-miterlimit="10"/>
<path d="M233.93 163.992H189.634C187.385 163.992 185.757 161.847 186.362 159.679L194.657 129.926C195.068 128.458 196.404 127.441 197.93 127.441H242.225C244.475 127.441 246.103 129.586 245.498 131.754L237.199 161.507C236.794 162.975 235.455 163.992 233.93 163.992Z" fill="url(#paint0_linear_87_96)" stroke="black" stroke-width="2" stroke-miterlimit="10"/>
<path d="M215.931 150.588C218.623 150.588 220.805 148.406 220.805 145.715C220.805 143.023 218.623 140.841 215.931 140.841C213.24 140.841 211.058 143.023 211.058 145.715C211.058 148.406 213.24 150.588 215.931 150.588Z" fill="black"/>
<path d="M89.2627 170.252H284.278" stroke="black" stroke-width="2" stroke-linecap="round" stroke-linejoin="round"/>
<path d="M116.317 170.268L112.875 183.133C109.848 194.446 118.463 205.52 130.173 205.37L157.051 205.026L125.372 260.968L153.001 270.203L178.991 200.802C180.613 196.47 178.139 191.684 173.666 190.503L131.749 179.437" stroke="black" stroke-width="2" stroke-linecap="round" stroke-linejoin="round"/>
<path d="M152.558 170.444L150.719 178.618L180.908 183.91C185.553 184.724 189.034 188.617 189.324 193.324L193.737 264.807L166.971 262.841L171.271 221.565" stroke="black" stroke-width="2" stroke-linecap="round" stroke-linejoin="round"/>
<path d="M133.559 289.397L138.048 279.352L144.67 286.373C149.968 291.99 156.902 292.129 159.557 292.096L164.958 294.738C166.124 295.308 166.863 296.493 166.863 297.79V298.043H152.187L133.559 289.397Z" fill="black"/>
<path d="M142.055 266.607L137.977 280.881" stroke="black" stroke-width="2" stroke-linecap="round" stroke-linejoin="round"/>
<path d="M153.061 270.073L149.159 280.825L159.234 292.102" stroke="black" stroke-width="2" stroke-linecap="round" stroke-linejoin="round"/>
<path d="M181.932 263.987L185.306 291.13C191.809 292.087 204.918 294.287 208.154 291.416L196.411 286.072L193.625 264.033" stroke="black" stroke-width="2" stroke-linecap="round" stroke-linejoin="round"/>
<path d="M185.045 298.043L184.538 288.527C186.107 288.721 191.561 291.918 198.26 291.918C201.996 291.918 205.446 291.591 206.412 290.607L219.841 295.147C221.082 295.567 221.918 296.732 221.918 298.043H185.045Z" fill="black"/>
<path d="M128.924 105.469V117.077M131.614 108.822C132.633 110.009 135.509 112.265 138.86 111.796C143.049 111.21 145.018 105.697 145.018 103.757C145.018 102.205 144.744 97.4244 144.744 95.928M139.134 111.75V118.991" stroke="black" stroke-width="2" stroke-linecap="round" stroke-linejoin="round"/>
<path d="M129.444 105.012V107.359C125.379 103.085 124.336 100.444 124.854 95.5212C125.269 91.5828 127.433 89.5906 128.974 89.087C121.848 87.1003 122.35 97.2055 123.214 99.9691C123.905 102.18 122.638 104.374 121.918 105.194C120.234 106.591 116.65 107.233 115.786 98.6305C114.706 87.8778 121.918 84.0342 126.237 84.2935C128.811 84.4478 131.774 85.3779 132.368 86.616C134.956 84.3078 139.558 85.2892 140.897 87.4194C143.79 87.2899 146.796 92.2193 146.633 94.204C146.543 95.2878 145.583 96.4711 143.812 96.4711C142.396 96.4711 141.523 95.0893 141.264 94.3984C139.666 95.9963 137.334 96.5143 134.398 96.4711C132.049 96.4368 130.666 99.6374 130.268 101.242C129.962 100.747 128.955 100.678 128.527 100.803C128.169 100.908 127.374 101.415 127.374 102.519C127.374 103.676 128.713 104.744 129.444 105.012Z" fill="black"/>
<path d="M139.131 117.602H143.191" stroke="black" stroke-width="2" stroke-linecap="round" stroke-linejoin="round"/>
<path d="M89.2627 164.292V170.185" stroke="black" stroke-width="2" stroke-linecap="round" stroke-linejoin="round"/>
<path d="M284.277 164.292V170.185" stroke="black" stroke-width="2" stroke-linecap="round" stroke-linejoin="round"/>
<path d="M77.4844 298.105L98.9074 170.444H104.991L84.0964 298.105H77.4844Z" stroke="black" stroke-width="2"/>
<path d="M293.482 298.105L272.059 170.444H265.976L286.87 298.105H293.482Z" stroke="black" stroke-width="2"/>
<path d="M25.1484 298.043H322.852" stroke="black" stroke-width="2"/>
<path d="M70.1134 275.916C69.6148 276.414 69.5951 277.214 70.0937 277.712C71.8999 279.503 73.015 281.981 73.015 284.719C73.015 287.443 71.9098 289.911 70.1232 291.697C69.7236 292.097 69.2845 292.467 68.8206 292.792L65 295.5H59.5L55.4967 292.694C52.9999 290.927 51.3367 288.085 51.3023 284.828C51.2728 282.059 52.383 279.553 54.1941 277.742C54.1988 277.737 54.1988 277.737 54.2039 277.732C54.7021 277.233 54.7218 276.434 54.2236 275.935C52.4174 274.144 51.3023 271.667 51.3023 268.928C51.3023 266.204 52.4075 263.737 54.1941 261.951C54.1988 261.945 54.1988 261.945 54.2039 261.941C54.7021 261.442 54.7218 260.643 54.2236 260.144C52.4174 258.353 51.3023 255.876 51.3023 253.137C51.3023 250.413 52.4075 247.946 54.1941 246.159C54.5937 245.76 55.0328 245.39 55.4967 245.064V239.32H68.8206V245.163C71.3174 246.929 72.9803 249.772 73.015 253.029C73.0445 255.797 71.9342 258.304 70.1232 260.115C70.1185 260.12 70.1185 260.12 70.1134 260.125C69.6148 260.623 69.5951 261.422 70.0937 261.921C71.8999 263.712 73.015 266.189 73.015 268.928C73.015 271.652 71.9098 274.119 70.1232 275.906M70.1134 275.916C70.1185 275.911 70.1185 275.911 70.1232 275.906M70.1134 275.916L70.1232 275.906" stroke="black" stroke-width="2" stroke-miterlimit="10"/>
<path d="M68.8206 292.792V298.043H55.4971V292.694C57.1796 293.888 59.2425 294.589 61.4433 294.589H63.1459C65.2577 294.589 67.2169 293.923 68.8206 292.792Z" fill="black" stroke="black" stroke-width="2" stroke-miterlimit="10"/>
<path d="M65.6128 239.152L82.3909 203.297" stroke="black" stroke-width="2" stroke-miterlimit="10"/>
<path d="M59.321 239.566L45.2178 207.491" stroke="black" stroke-width="2" stroke-miterlimit="10"/>
<path d="M75.976 217.005L65.4897 195.268" stroke="black" stroke-width="2" stroke-miterlimit="10"/>
<path d="M37.0356 221.224L53.2462 225.749" stroke="black" stroke-width="2" stroke-miterlimit="10"/>
<path d="M71.9165 225.656L86.5298 222.598" stroke="black" stroke-width="2" stroke-miterlimit="10"/>
<path d="M92.9824 223.608C94.4811 223.608 95.6964 222.393 95.6964 220.894C95.6964 219.395 94.4811 218.18 92.9824 218.18C91.4833 218.18 90.2681 219.395 90.2681 220.894C90.2681 222.393 91.4833 223.608 92.9824 223.608Z" fill="black"/>
<path d="M69.8077 218.594C71.3068 218.594 72.5217 217.379 72.5217 215.88C72.5217 214.381 71.3068 213.166 69.8077 213.166C68.3087 213.166 67.0938 214.381 67.0938 215.88C67.0938 217.379 68.3087 218.594 69.8077 218.594Z" fill="black"/>
<path d="M66.8468 227.97C68.3459 227.97 69.5611 226.755 69.5611 225.256C69.5611 223.757 68.3459 222.542 66.8468 222.542C65.3481 222.542 64.1328 223.757 64.1328 225.256C64.1328 226.755 65.3481 227.97 66.8468 227.97Z" fill="black"/>
<path d="M56.9772 222.048C58.4762 222.048 59.6915 220.833 59.6915 219.334C59.6915 217.835 58.4762 216.62 56.9772 216.62C55.4781 216.62 54.2632 217.835 54.2632 219.334C54.2632 220.833 55.4781 222.048 56.9772 222.048Z" fill="black"/>
<path d="M74.2487 236.852C75.7477 236.852 76.963 235.637 76.963 234.138C76.963 232.639 75.7477 231.424 74.2487 231.424C72.75 231.424 71.5347 232.639 71.5347 234.138C71.5347 235.637 72.75 236.852 74.2487 236.852Z" fill="black"/>
<path d="M69.8077 195.401C71.3068 195.401 72.5217 194.186 72.5217 192.687C72.5217 191.188 71.3068 189.973 69.8077 189.973C68.3087 189.973 67.0938 191.188 67.0938 192.687C67.0938 194.186 68.3087 195.401 69.8077 195.401Z" fill="black"/>
<path d="M86.5856 210.205C88.0846 210.205 89.2999 208.99 89.2999 207.491C89.2999 205.992 88.0846 204.777 86.5856 204.777C85.0869 204.777 83.8716 205.992 83.8716 207.491C83.8716 208.99 85.0869 210.205 86.5856 210.205Z" fill="black"/>
<path d="M83.6246 221.061C85.1237 221.061 86.339 219.846 86.339 218.347C86.339 216.848 85.1237 215.633 83.6246 215.633C82.1259 215.633 80.9106 216.848 80.9106 218.347C80.9106 219.846 82.1259 221.061 83.6246 221.061Z" fill="black"/>
<path d="M87.5727 229.944C89.0714 229.944 90.2867 228.729 90.2867 227.23C90.2867 225.731 89.0714 224.516 87.5727 224.516C86.0737 224.516 84.8584 225.731 84.8584 227.23C84.8584 228.729 86.0737 229.944 87.5727 229.944Z" fill="black"/>
<path d="M31.8103 224.516C33.3092 224.516 34.5244 223.3 34.5244 221.801C34.5244 220.303 33.3092 219.087 31.8103 219.087C30.3113 219.087 29.0962 220.303 29.0962 221.801C29.0962 223.3 30.3113 224.516 31.8103 224.516Z" fill="black"/>
<path d="M47.1075 231.918C48.6066 231.918 49.8215 230.703 49.8215 229.204C49.8215 227.705 48.6066 226.49 47.1075 226.49C45.6085 226.49 44.3936 227.705 44.3936 229.204C44.3936 230.703 45.6085 231.918 47.1075 231.918Z" fill="black"/>
<path d="M47.1075 204.283C48.6066 204.283 49.8215 203.068 49.8215 201.569C49.8215 200.07 48.6066 198.855 47.1075 198.855C45.6085 198.855 44.3936 200.07 44.3936 201.569C44.3936 203.068 45.6085 204.283 47.1075 204.283Z" fill="black"/>
<path d="M53.0294 212.179C54.5285 212.179 55.7434 210.964 55.7434 209.465C55.7434 207.966 54.5285 206.751 53.0294 206.751C51.5304 206.751 50.3154 207.966 50.3154 209.465C50.3154 210.964 51.5304 212.179 53.0294 212.179Z" fill="black"/>
<path d="M40.6925 209.218C42.1916 209.218 43.4068 208.003 43.4068 206.504C43.4068 205.005 42.1916 203.79 40.6925 203.79C39.1938 203.79 37.9785 205.005 37.9785 206.504C37.9785 208.003 39.1938 209.218 40.6925 209.218Z" fill="black"/>
<path d="M39.2124 231.918C40.7111 231.918 41.9264 230.703 41.9264 229.204C41.9264 227.705 40.7111 226.49 39.2124 226.49C37.7133 226.49 36.498 227.705 36.498 229.204C36.498 230.703 37.7133 231.918 39.2124 231.918Z" fill="black"/>
<path d="M39.2124 219.581C40.7111 219.581 41.9264 218.366 41.9264 216.867C41.9264 215.368 40.7111 214.153 39.2124 214.153C37.7133 214.153 36.498 215.368 36.498 216.867C36.498 218.366 37.7133 219.581 39.2124 219.581Z" fill="black"/>
<path d="M77.2096 207.738C78.7086 207.738 79.9239 206.522 79.9239 205.024C79.9239 203.525 78.7086 202.309 77.2096 202.309C75.7109 202.309 74.4956 203.525 74.4956 205.024C74.4956 206.522 75.7109 207.738 77.2096 207.738Z" fill="black"/>
<path d="M83.131 200.829C84.63 200.829 85.845 199.614 85.845 198.115C85.845 196.616 84.63 195.401 83.131 195.401C81.6319 195.401 80.417 196.616 80.417 198.115C80.417 199.614 81.6319 200.829 83.131 200.829Z" fill="black"/>
<path d="M62.6323 221.224V239.325" stroke="black" stroke-width="2" stroke-miterlimit="10"/>
<path d="M59.3213 227.476L62.6324 230.728" stroke="black" stroke-width="2" stroke-miterlimit="10"/>
<path d="M55.7437 254.124L59.2029 250.67L62.4056 253.877L65.6131 250.67L69.1858 254.243" stroke="black" stroke-width="2" stroke-miterlimit="10"/>
<path d="M55.7437 269.915L59.2029 266.461L62.4056 269.668L65.6131 266.461L69.1858 270.033" stroke="black" stroke-width="2" stroke-miterlimit="10"/>
<path d="M55.7437 285.706L59.2029 282.252L62.4056 285.46L65.6131 282.252L69.1858 285.825" stroke="black" stroke-width="2" stroke-miterlimit="10"/>
<defs>
<linearGradient id="paint0_linear_87_96" x1="215.93" y1="127.441" x2="215.93" y2="163.992" gradientUnits="userSpaceOnUse">
<stop stop-color="#7ED1DE"/>
<stop offset="0.235" stop-color="#7ED7CB"/>
<stop offset="1" stop-color="#C3F0EA"/>
</linearGradient>
</defs>
</svg>
