<svg width="400" height="300" viewBox="0 0 400 300" fill="none" xmlns="http://www.w3.org/2000/svg">
<path d="M293.6 132.44V142.28L293.13 156.69L270.56 157.21L272.68 152.11L275.31 144.82L293.6 132.44Z" fill="white"/>
<path d="M292.77 131.89L277.21 132.11V135.08L275.53 143.99L276.1 144.82L292.77 131.89Z" fill="white"/>
<path d="M268.17 132.44L265.43 150.47L248.44 145.63L248.61 133.25L250.83 132.44H268.17Z" fill="white"/>
<path d="M260.23 157.21H248.66L248.44 153.04L260.23 157.21Z" fill="white"/>
<path d="M275.46 71.59C275.23 71.1 274.46 70.68 274.17 70.26C273.99 70.03 273.56 69.41 273.36 69.19C272.59 68.35 271.81 68.54 270.9 67.84L270.73 67.72L269.47 66C269.36 66.21 264.47 64.49 264.47 64.45C263.96 64.2572 263.43 64.123 262.89 64.05C262.64 64.05 262.39 63.99 262.14 63.98C261.06 63.9416 259.98 63.9985 258.91 64.15C258.45 64.21 258 64.28 257.55 64.36C256.28 64.59 255.02 64.88 253.76 65.16C253.342 65.379 252.944 65.6332 252.57 65.92C252.14 66.25 251.71 66.58 251.26 66.92C250.34 67.51 248.9 67.03 247.94 67.55C247.48 67.8 246.44 68.47 246.01 68.76C245.58 69.05 245.44 69.23 245.07 69.5C244.7 69.77 245.43 70.44 245.19 70.64C244.609 71.1192 244.058 71.6335 243.54 72.18C243.568 72.2417 243.591 72.3052 243.61 72.37C243.729 72.6258 243.877 72.8673 244.05 73.09C244.303 73.3963 244.588 73.6745 244.9 73.92C245.63 74.4288 246.415 74.8548 247.24 75.19C247.74 75.39 247.71 76.19 248.24 76.42C249.16 76.74 249.81 77.69 250.73 78.02C251.65 78.35 252.4 78.17 253.17 78.64C253.6 78.9 254.55 78.57 254.31 79C254.261 79.0791 254.201 79.15 254.13 79.21C254.967 79.4437 255.819 79.6175 256.68 79.73C257.17 79.8 257.68 79.85 258.15 79.89C259.51 80.02 260.89 80.09 262.25 80.26C263.47 79.88 264.74 79.68 265.94 79.26C266.52 78.97 267.06 78.61 267.61 78.26C268.241 77.8596 268.911 77.5246 269.61 77.26C269.669 77.246 269.731 77.246 269.79 77.26C269.979 77.0548 270.182 76.8643 270.4 76.69C271.4 75.86 272.6 75.25 273.66 74.47C274.029 74.1967 274.364 73.8813 274.66 73.53L274.89 73.2C274.951 73.0973 275.032 73.008 275.128 72.9375C275.224 72.867 275.334 72.8168 275.45 72.79L275.51 72.68C275.22 72.55 275.56 71.78 275.46 71.59Z" fill="white"/>
<path d="M220.59 190.19C222.2 190.19 223.69 190.19 225.18 190.19C226.67 190.19 228.04 190.13 229.48 190.11H231.16H239.93C240.196 190.11 240.461 190.141 240.72 190.2C240.887 190.214 241.049 190.261 241.197 190.338C241.346 190.415 241.477 190.521 241.584 190.649C241.691 190.778 241.772 190.926 241.821 191.086C241.87 191.246 241.886 191.414 241.87 191.58C241.96 193.58 242.07 195.58 242.09 197.65C242.09 201.25 242.09 204.84 242.09 208.43C242.09 209.29 242.09 210.16 242.03 211.02C242.03 212.14 242.09 212.23 243.17 212.26H244.46C244.589 212.249 244.717 212.222 244.84 212.18C244.84 212.12 244.84 212.08 244.84 212.06C244.553 211.431 244.506 210.718 244.709 210.056C244.912 209.395 245.35 208.831 245.94 208.47C246.678 207.909 247.446 207.388 248.24 206.91C248.72 206.6 249.24 206.36 249.7 206.04C250.278 205.666 250.733 205.13 251.007 204.498C251.281 203.866 251.362 203.168 251.24 202.49C250.836 200.396 250.182 198.358 249.29 196.42C249.01 195.71 248.72 195.01 248.4 194.24L247.29 194.43C246.48 194.52 246.21 194.43 245.94 193.6C245.25 191.6 244.61 189.6 243.94 187.6C243.49 186.31 242.94 185.05 242.52 183.76C241.71 181.43 240.88 179.11 240.19 176.76C239.948 175.869 239.939 174.931 240.165 174.036C240.391 173.141 240.844 172.319 241.48 171.65C243.052 169.749 244.903 168.097 246.97 166.75C249.18 165.34 251.25 163.75 253.33 162.1C253.985 161.538 254.563 160.892 255.05 160.18C255.272 159.864 255.406 159.495 255.438 159.11C255.469 158.725 255.398 158.338 255.23 157.99H253.56L249.46 158.04C248.26 158.04 248.14 157.95 248.05 156.79C247.96 155.63 247.94 154.67 247.93 153.6C247.955 153.388 247.918 153.174 247.824 152.982C247.73 152.79 247.583 152.63 247.4 152.52C247.088 152.351 246.83 152.099 246.653 151.792C246.476 151.485 246.389 151.134 246.4 150.78C246.403 150.586 246.335 150.398 246.21 150.25C245.41 149.55 245.49 148.48 245.08 147.63C245.022 147.407 245.022 147.173 245.08 146.95C245.13 146.6 245.23 146.25 245.26 145.9C245.242 145.748 245.259 145.594 245.309 145.45C245.36 145.305 245.443 145.174 245.552 145.067C245.661 144.96 245.794 144.879 245.939 144.831C246.084 144.783 246.238 144.769 246.39 144.79C246.625 144.79 246.859 144.81 247.09 144.85L247.9 144.98C247.9 144.55 247.95 144.17 247.9 143.79C247.847 140.563 247.793 137.333 247.74 134.1V133.9C247.74 132.58 247.94 132.37 249.29 132.21C249.953 132.123 250.621 132.077 251.29 132.07C254.48 132.07 257.67 132.13 260.87 132.12C262.93 132.12 264.99 132.03 267.06 132C267.286 132.008 267.508 131.939 267.689 131.804C267.871 131.67 268.001 131.478 268.06 131.26C268.351 130.413 268.729 129.598 269.19 128.83C269.701 128.015 270.477 127.4 271.386 127.087C272.296 126.774 273.285 126.782 274.19 127.11C274.917 127.329 275.576 127.733 276.101 128.281C276.627 128.829 277.002 129.504 277.19 130.24C277.3 130.62 277.39 131.01 277.51 131.48C278.12 131.48 278.7 131.36 279.29 131.35C282.05 131.28 284.81 131.2 287.57 131.19C289.27 131.19 290.97 131.28 292.67 131.37C293.96 131.44 294.22 131.73 294.22 133.03C294.22 135.46 294.13 137.9 294.12 140.33C294.12 143.72 294.12 147.12 294.07 150.52C294.07 152.18 293.99 153.84 293.95 155.52C293.95 155.62 293.95 155.72 293.95 155.82C293.7 157.31 293.72 157.25 292.46 157.3C289.2 157.43 285.93 157.53 282.67 157.64L279.08 157.77C278.841 157.797 278.603 157.84 278.37 157.9C278.355 158.17 278.355 158.44 278.37 158.71C278.83 162.25 279.28 165.78 279.75 169.31C280.27 173.14 280.87 176.96 281.31 180.79C281.75 184.62 282.04 188.35 282.39 192.12C282.66 194.94 282.94 197.76 283.2 200.58C283.39 202.58 283.49 204.63 283.77 206.64C284.1 208.94 284.58 211.22 285 213.51C285.037 213.673 285.094 213.831 285.17 213.98C286.197 216.551 286.733 219.292 286.75 222.06C286.793 222.382 286.714 222.708 286.529 222.974C286.344 223.24 286.066 223.428 285.75 223.5C284.94 223.81 284.49 223.55 284.34 222.67C284.254 222.01 284.079 221.364 283.82 220.75C283.68 221.15 283.51 221.53 283.39 221.93C283.243 222.462 282.977 222.952 282.611 223.365C282.245 223.778 281.79 224.101 281.28 224.31C279.511 225.083 277.643 225.605 275.73 225.86C275.199 225.916 274.671 226.003 274.15 226.12C273.143 226.353 272.1 226.387 271.08 226.22C270.867 226.228 270.655 226.18 270.466 226.081C270.277 225.982 270.118 225.835 270.003 225.655C269.889 225.475 269.824 225.268 269.815 225.055C269.805 224.841 269.852 224.63 269.95 224.44C270.246 223.739 270.659 223.093 271.17 222.53C271.93 221.7 272.81 220.98 273.62 220.19C274.538 219.294 275.227 218.19 275.629 216.972C276.031 215.754 276.134 214.457 275.93 213.19C275.71 211.52 275.3 209.86 274.93 208.19C274.888 208.082 274.831 207.981 274.76 207.89L273.4 207.82C273.198 207.816 273.004 207.739 272.855 207.603C272.706 207.467 272.612 207.281 272.59 207.08C272.24 205.36 271.91 203.63 271.51 201.91C270.51 197.63 269.51 193.35 268.44 189.09C267.87 186.87 267.08 184.7 266.44 182.5C265.8 180.3 265.13 177.89 264.44 175.59C264.335 175.291 264.215 174.997 264.08 174.71C263.72 174.88 263.42 175 263.13 175.15L254.99 179.62C254.29 180.01 254.29 180.01 254.51 180.69C255.94 184.99 257.33 189.3 258.8 193.58C259.64 196 260.63 198.37 261.52 200.77C261.779 201.411 261.954 202.084 262.04 202.77C262.152 204.1 262.189 205.436 262.15 206.77C262.08 208.53 261.9 210.28 261.77 212.05C261.844 212.114 261.928 212.165 262.02 212.2C263.25 212.52 263.42 212.73 263.49 214.05C263.57 215.87 263.66 217.7 263.72 219.53C263.78 221.85 263.84 224.18 263.86 226.53C263.86 228.39 263.7 230.26 263.86 232.11C264.02 233.96 263.68 233.81 265.59 233.85C268.023 233.897 270.453 233.92 272.88 233.92C275.7 233.92 278.527 233.903 281.36 233.87C282.29 233.87 283.22 233.81 284.15 233.87C284.86 233.87 285.04 234.08 285.06 234.77C285.11 236.96 285.16 239.16 285.16 241.35C285.16 244.35 285.16 247.41 285.11 250.44C285.11 251.67 285.11 252.9 285 254.13C284.92 255.2 284.35 255.64 283.28 255.68L276.91 255.9C274.48 256 272.06 256.12 269.63 256.21C266.7 256.31 263.78 256.42 260.85 256.48C258.85 256.53 256.8 256.48 254.77 256.48C251.11 256.48 247.45 256.48 243.77 256.48C240.91 256.48 238.06 256.56 235.21 256.6C232.01 256.6 228.82 256.68 225.62 256.7C224.06 256.7 222.5 256.7 220.94 256.7C219.57 256.7 218.21 256.7 216.84 256.7C214.15 256.7 211.46 256.7 208.76 256.7C205.6 256.7 202.44 256.673 199.28 256.62C197.02 256.62 194.76 256.53 192.51 256.52C188.51 256.52 184.45 256.52 180.42 256.47C177.76 256.47 175.1 256.47 172.42 256.47C170.53 256.47 168.63 256.58 166.74 256.59C164.58 256.59 162.43 256.49 160.28 256.49C158.13 256.49 155.95 256.61 153.79 256.61C149.66 256.61 145.54 256.54 141.41 256.51H136.82L128.65 256.38C125.59 256.38 122.53 256.33 119.48 256.29C118.88 256.29 118.29 256.15 117.69 256.12C117.09 256.09 116.23 256.12 115.5 256.05C114.77 255.98 113.92 255.87 113.14 255.76C112.956 255.737 112.784 255.652 112.654 255.52C112.523 255.387 112.441 255.215 112.42 255.03C112.342 254.674 112.289 254.313 112.26 253.95C112.26 249.62 112.17 245.3 112.16 240.95C112.16 239.69 112.31 238.43 112.36 237.17C112.42 235.58 112.42 233.98 112.48 232.39C112.57 230.26 112.72 228.14 112.8 226.01C112.86 224.15 112.8 222.29 112.88 220.43C112.88 218.73 112.95 217.03 112.99 215.34C112.99 213.41 113.06 211.48 113.11 209.55C113.11 207.89 113.2 206.23 113.23 204.55C113.23 203.76 113.23 202.97 113.17 202.17C112.98 198.82 112.97 195.46 113.02 192.1C113.08 188.1 112.91 184.05 112.83 180.02C112.76 176.7 112.68 173.38 112.62 170.02C112.62 168.16 112.62 166.3 112.62 164.44C112.62 162.58 112.41 160.52 112.34 158.56C112.28 157.03 112.28 155.5 112.26 153.97C112.26 150.52 112.17 147.06 112.14 143.61C112.14 139.51 112.06 135.42 112.06 131.33C112.06 127.9 112.15 124.48 112.19 121.06C112.19 118.84 112.25 116.61 112.26 114.39C112.26 113.82 112.16 113.26 112.15 112.7C112.15 109.7 111.99 106.77 112.15 103.82C112.36 98.94 112.7 94.05 113.09 89.18C113.241 85.6416 113.884 82.1414 115 78.78C115.75 76.78 116.53 74.78 117.31 72.72C117.72 71.72 118.11 70.6 118.62 69.6C119.25 68.2798 119.968 67.0036 120.77 65.78C122.042 63.7497 123.516 61.8533 125.17 60.12C127.652 57.5841 130.327 55.2438 133.17 53.12C134.47 52.2 135.68 51.12 137.03 50.29C138.74 49.21 140.54 48.29 142.32 47.29C143.84 46.46 145.39 45.69 146.93 44.89C148.662 44.0712 150.475 43.4376 152.34 43C153.81 42.6 155.34 42.27 156.76 41.8C158.191 41.3653 159.667 41.0968 161.16 41C161.427 41.017 161.694 40.9865 161.95 40.91C163.63 40.09 165.42 40.33 167.16 40.46C169.71 40.65 172.26 40.96 174.8 41.29C175.715 41.461 176.617 41.6949 177.5 41.99L183 43.47C184.568 43.9164 186.08 44.5369 187.51 45.32C189.88 46.59 192.32 47.75 194.68 49.05C195.936 49.7971 197.148 50.6151 198.31 51.5C201.092 53.4477 203.738 55.5826 206.23 57.89C210.449 61.7229 213.783 66.4286 216 71.68C217.641 75.318 218.918 79.1099 219.81 83C220.08 84.3 220.17 85.63 220.31 87C220.56 89.38 220.84 91.77 221 94.15C221.18 96.84 221.25 99.54 221.35 102.23C221.44 104.76 221.53 107.23 221.57 109.81C221.57 110.94 221.45 112.07 221.44 113.2C221.44 115.43 221.44 117.65 221.44 119.88C221.44 122.11 221.44 124.54 221.44 126.88C221.44 128.34 221.57 129.8 221.57 131.26C221.57 133.49 221.57 135.72 221.51 137.95L221.42 144.95C221.42 148.78 221.32 152.6 221.26 156.43C221.26 158.03 221.21 159.62 221.16 161.22C221.16 163.01 221.02 164.81 221 166.61C221 169.1 221 171.61 221 174.09C220.94 176.75 220.74 179.41 220.66 182.09C220.59 184.45 220.59 186.81 220.56 189.18C220.54 189.41 220.57 189.74 220.59 190.19ZM113.82 105.54C114.82 105.45 115.63 105.43 116.47 105.28C119.575 104.844 122.736 105.065 125.75 105.93C127.939 106.531 129.999 107.528 131.83 108.87C134.39 110.613 136.757 112.624 138.89 114.87C139.583 115.672 140.224 116.517 140.81 117.4C142.166 119.209 143.198 121.239 143.86 123.4C144.42 125.4 145.03 127.4 145.42 129.48C145.774 131.41 146.008 133.361 146.12 135.32C146.214 137.454 145.913 139.586 145.23 141.61C144.03 145.43 142.41 149.01 139.31 151.71C137.51 153.28 135.71 154.85 133.88 156.39C133.409 156.811 132.884 157.167 132.32 157.45C129.775 158.7 127.059 159.566 124.26 160.02C121.339 160.513 118.382 160.758 115.42 160.75C114.985 160.774 114.551 160.821 114.12 160.89C114.32 170.79 114.52 180.61 114.72 190.53L115.92 190.46C116.85 190.37 117.77 190.22 118.7 190.19C121.56 190.09 124.42 190.04 127.28 189.96C129.17 189.91 131.07 189.79 132.97 189.77C135.1 189.77 137.23 189.83 139.36 189.82C143.52 189.82 147.68 189.72 151.84 189.69C154 189.69 156.16 189.69 158.32 189.69H166.9H180.57C180.816 189.671 181.061 189.631 181.3 189.57C181.308 189.48 181.308 189.39 181.3 189.3C181.264 189.17 181.217 189.043 181.16 188.92C179.624 186.272 178.396 183.457 177.5 180.53C177.478 180.457 177.457 180.384 177.435 180.312C176.816 178.224 176.194 176.126 175.75 173.99C175.22 170.567 175.22 167.083 175.75 163.66C176.034 161.448 176.737 159.31 177.82 157.36C178.365 156.147 178.982 154.968 179.67 153.83C180.524 152.645 181.449 151.513 182.44 150.44C183.07 149.71 183.738 149.012 184.44 148.35C185.58 147.28 186.7 146.19 187.93 145.24C189.16 144.29 190.64 143.52 191.93 142.55C193.268 141.564 194.735 140.766 196.29 140.18C199.12 138.993 202.08 138.147 205.11 137.66L208.11 137.24V113C207.944 112.984 207.776 112.984 207.61 113C205.758 113.538 203.86 113.9 201.94 114.08C201.381 114.166 200.816 114.213 200.25 114.22C198.49 114.173 196.73 114.093 194.97 113.98C191.911 113.863 188.882 113.324 185.97 112.38C183.76 111.59 181.43 111.04 179.51 109.58C179.01 109.2 178.51 108.86 177.95 108.5C175.85 109.74 173.78 110.95 171.73 112.18C169.007 113.919 166.027 115.219 162.9 116.03C162.15 116.21 161.41 116.4 160.66 116.56C158.48 117.04 156.3 117.5 154.06 116.83C153.356 116.681 152.71 116.334 152.197 115.828C151.685 115.323 151.329 114.682 151.17 113.98C150.824 112.576 150.915 111.101 151.43 109.75C152.29 107.53 153.19 105.3 154.27 103.17C155.216 101.418 156.268 99.7247 157.42 98.1C158.42 96.58 159.55 95.1 160.65 93.66C161.08 93.08 161.58 92.56 162.08 91.98C161.77 91.38 161.47 90.83 161.21 90.26C160.68 89.11 160.21 87.96 159.69 86.8C159.52 86.41 159.5 85.96 159.34 85.56C158.656 83.6476 158.166 81.6709 157.88 79.66C157.519 77.8003 157.271 75.9201 157.14 74.03C157.025 72.1052 157.085 70.1739 157.32 68.26C157.614 66.0143 158.153 63.8076 158.93 61.68C159.683 59.5107 160.555 57.3842 161.54 55.31C162.344 53.7069 163.353 52.2145 164.54 50.87C165.95 49.23 167.29 47.53 168.66 45.87C168.95 45.52 169.27 45.21 169.66 44.87C169.38 44.73 169.25 44.63 169.1 44.58C167.3 44.08 165.52 43.52 163.71 43.12C162.043 42.621 160.28 42.5284 158.57 42.85L151.57 44.66C150.068 45.0988 148.619 45.7024 147.25 46.46C145.88 47.14 144.5 47.8 143.14 48.46C142.064 48.959 141.015 49.5165 140 50.13C138.33 51.21 136.69 52.35 135.08 53.53C133.63 54.53 132.21 55.69 130.85 56.85C129.77 57.78 128.8 58.85 127.76 59.85C125.691 61.687 123.893 63.8081 122.42 66.15C121.532 67.4739 120.731 68.8534 120.02 70.28C118.78 73.08 117.72 75.95 116.58 78.79C115.791 80.7601 115.26 82.8239 115 84.93C114.64 87.93 114.46 90.87 114.27 93.85C114.07 97.07 113.94 100.3 113.79 103.52C113.79 104.18 113.82 104.83 113.82 105.54ZM240.71 212.19C240.758 212.03 240.791 211.866 240.81 211.7C240.81 208.81 240.76 205.91 240.75 203.02C240.75 200.96 240.75 198.89 240.75 196.83C240.75 195.47 240.8 194.1 240.75 192.74C240.75 191.57 240.62 191.48 239.49 191.48H238.89L224.41 191.66C221.09 191.66 217.76 191.79 214.41 191.76C211.78 191.76 209.16 191.55 206.53 191.46C205.07 191.46 203.61 191.46 202.14 191.39C199.62 191.39 197.14 191.25 194.58 191.25C191.26 191.25 187.94 191.31 184.63 191.32C180.503 191.32 176.38 191.32 172.26 191.32C171.03 191.32 169.8 191.24 168.57 191.24C165.44 191.24 162.32 191.24 159.19 191.24H150.11C148.48 191.24 146.85 191.24 145.22 191.24C143.16 191.24 141.1 191.24 139.04 191.24H135.8C135.74 197.81 135.69 204.3 135.63 210.86C136.1 210.86 136.45 210.92 136.81 210.92C138.71 210.92 140.61 210.92 142.5 210.92C144.39 210.92 146.42 211.09 148.39 211.15C152.04 211.25 155.7 211.34 159.39 211.4C162.75 211.46 166.11 211.49 169.46 211.52C172.12 211.52 174.79 211.52 177.46 211.58C180.13 211.64 182.65 211.64 185.24 211.65C188.07 211.65 190.89 211.65 193.72 211.65C196.01 211.65 198.3 211.65 200.6 211.65C202.39 211.65 204.19 211.65 205.98 211.65C207.77 211.65 209.7 211.72 211.56 211.76C214.15 211.76 216.74 211.85 219.33 211.92C221.75 211.98 224.18 212.12 226.6 212.15C230.43 212.15 234.26 212.15 238.08 212.15L240.71 212.19ZM157.41 232.73C159.1 232.81 160.59 232.89 162.08 232.93C163.28 232.93 164.47 232.93 165.67 232.93C167.73 232.93 169.79 232.93 171.85 232.93C175.55 232.93 179.24 232.99 182.94 233.04C185.4 233.04 187.857 233.087 190.31 233.18C192.48 233.23 194.64 233.33 196.8 233.37C198.7 233.37 200.6 233.37 202.5 233.37C205.86 233.43 209.22 233.58 212.58 233.61C215.94 233.64 219.37 233.54 222.76 233.55C226.89 233.55 231.01 233.6 235.14 233.63C236.61 233.63 238.07 233.69 239.53 233.69C240.99 233.69 242.39 233.61 243.82 233.6C245.58 233.6 247.35 233.6 249.11 233.6C251.8 233.6 254.49 233.6 257.18 233.6C258.64 233.6 260.1 233.67 261.56 233.69C261.94 233.69 262.32 233.62 262.67 233.59C262.6 226.86 262.53 220.27 262.46 213.59C261.8 213.59 261.24 213.68 260.68 213.68C258.49 213.68 256.3 213.62 254.1 213.63C249.41 213.63 244.71 213.71 240.02 213.71C236.02 213.71 231.97 213.63 227.94 213.6C225.94 213.6 224.01 213.6 222.05 213.6C218.96 213.51 215.87 213.32 212.78 213.23C210.78 213.23 208.73 213.23 206.7 213.23C204.14 213.23 201.58 213.23 199.02 213.23C194.52 213.23 190.02 213.23 185.54 213.23C181.71 213.23 177.89 213.16 174.06 213.11C171.91 213.11 169.75 213.05 167.59 213.01L160.01 212.91H157.41V232.73ZM178.88 234.53C178.88 236.85 178.88 239.07 178.88 241.29C178.88 243.51 179 245.81 178.97 248.07C178.94 250.33 178.82 252.49 178.73 254.78H180.16C183.16 254.78 186.22 254.73 189.24 254.78C192.26 254.83 195.1 254.91 198.03 254.95C201.52 254.95 205.03 254.95 208.51 255.01C210.74 255.01 212.97 255.07 215.19 255.06C216.19 255.06 217.19 254.97 218.19 254.97C221.25 254.97 224.31 254.97 227.37 254.97C229.9 254.97 232.43 254.89 234.96 254.87C237.26 254.87 239.55 254.92 241.85 254.87C245.1 254.87 248.34 254.7 251.59 254.66C254.44 254.66 257.3 254.72 260.15 254.66C264.31 254.57 268.46 254.39 272.62 254.26C275.87 254.16 279.13 254.09 282.39 254L283.8 253.91C283.88 247.67 283.95 241.54 284.02 235.36C283.814 235.347 283.606 235.347 283.4 235.36L276.31 235.5C274.62 235.5 272.92 235.57 271.23 235.5C269.54 235.43 267.77 235.38 266.04 235.36C263.74 235.36 261.45 235.36 259.15 235.31H247.38C245.18 235.31 242.99 235.31 240.8 235.31C238.61 235.31 236.55 235.23 234.42 235.22C231.93 235.22 229.42 235.22 226.94 235.22C224.07 235.22 221.21 235.22 218.35 235.22C215.23 235.22 212.1 235.28 208.98 235.22C205.33 235.16 201.68 234.99 198.03 234.9C195.34 234.84 192.65 234.84 189.95 234.78L179.87 234.51C179.54 234.498 179.209 234.505 178.88 234.53ZM174.71 104.82C176.32 103.95 177.91 103.07 179.52 102.21C182.33 100.558 185.044 98.7487 187.65 96.79C189.97 95.2 192.16 93.4 194.37 91.63C195.95 90.36 197.46 89.01 198.99 87.63C200.06 86.69 201.08 85.69 202.15 84.74C203.22 83.79 204.15 82.97 205.15 82.16C205.371 82.016 205.53 81.7948 205.597 81.5396C205.663 81.2845 205.632 81.0136 205.51 80.78C205.1 79.62 204.69 78.45 204.27 77.3C204.079 76.6069 203.814 75.9364 203.48 75.3C202.18 73.21 201.32 70.88 199.87 68.86C199.12 67.86 198.55 66.63 197.87 65.56C196.95 64.21 196.01 62.88 194.99 61.56C193.511 59.7713 191.897 58.0997 190.16 56.56C188.53 55.1 186.84 53.7 185.08 52.4C184.676 52.1032 184.252 51.8359 183.81 51.6C182.39 50.81 180.91 50.11 179.53 49.24C177.06 47.69 174.29 46.8 171.7 45.5C171.574 45.4178 171.423 45.3819 171.274 45.3983C171.124 45.4147 170.985 45.4825 170.88 45.59C170.56 45.8293 170.259 46.0934 169.98 46.38C168.73 47.88 167.54 49.44 166.25 50.92C164.738 52.6114 163.488 54.5191 162.54 56.58C161.74 58.2246 161.035 59.9141 160.43 61.64C159.518 64.1105 158.93 66.6886 158.68 69.31C158.529 70.7984 158.462 72.2941 158.48 73.79C158.668 76.4874 159.086 79.1638 159.73 81.79C160.291 84.6593 161.282 87.4272 162.67 90C163.84 92 164.93 94 166.22 95.88C168.02 98.3999 170.093 100.714 172.4 102.78C173.13 103.44 173.88 104.09 174.71 104.82ZM114 159.23C116.07 159.17 117.92 159.17 119.77 159.05C121.86 158.881 123.933 158.547 125.97 158.05C128.816 157.512 131.491 156.298 133.77 154.51C134.21 154.16 134.64 153.79 135.1 153.51C136.931 152.177 138.566 150.595 139.96 148.81C142.263 145.94 143.764 142.51 144.31 138.87C144.653 137.071 144.727 135.231 144.53 133.41C144.214 130.904 143.703 128.426 143 126C142.723 124.871 142.389 123.756 142 122.66C140.943 120.07 139.418 117.697 137.5 115.66C137.19 115.33 136.84 115.02 136.5 114.66C135.812 113.953 135.084 113.285 134.32 112.66C132.82 111.52 131.25 110.45 129.69 109.39C128.28 108.375 126.683 107.651 124.99 107.26C123.27 106.92 121.51 106.72 119.76 106.47C119.428 106.434 119.092 106.434 118.76 106.47C117.57 106.59 116.37 106.71 115.19 106.86C114.67 106.93 114.19 107.07 113.58 107.19C113.58 107.81 113.58 108.34 113.58 108.87C113.58 110.87 113.72 112.87 113.74 114.95C113.74 118.41 113.74 121.873 113.74 125.34C113.74 127.69 113.63 130.05 113.61 132.4C113.61 134.53 113.61 136.65 113.61 138.78C113.61 140.91 113.7 142.83 113.73 144.85C113.73 146.18 113.73 147.51 113.73 148.85C113.73 151.34 113.84 153.85 113.88 156.32C114 157.24 114 158.13 114 159.23ZM208.12 138.89C207.827 138.868 207.533 138.868 207.24 138.89C206.16 139.08 205.09 139.34 204 139.49C201.342 139.951 198.76 140.779 196.33 141.95C194.805 142.687 193.325 143.515 191.9 144.43C189.283 146.09 186.884 148.073 184.76 150.33C183.781 151.28 182.875 152.303 182.05 153.39C181.05 154.83 180.22 156.39 179.35 157.92C178.85 158.704 178.434 159.539 178.11 160.41C177.272 163.29 176.875 166.281 176.93 169.28C177.029 172.327 177.506 175.35 178.35 178.28C178.781 179.893 179.332 181.47 180 183C180.91 185.1 181.94 187.15 182.93 189.22C182.987 189.378 183.091 189.514 183.23 189.609C183.368 189.704 183.532 189.754 183.7 189.75H188.29C190.86 189.75 193.42 189.75 195.99 189.75C197.71 189.75 199.44 189.75 201.17 189.82C202.57 189.82 203.96 189.89 205.36 189.91C206.21 189.91 207.06 189.91 207.9 189.91C208 172.87 208.05 155.93 208.12 138.89ZM256.59 158.11C256.66 158.684 256.612 159.266 256.451 159.821C256.289 160.376 256.017 160.893 255.65 161.34C255.044 162.082 254.356 162.752 253.6 163.34C251.48 164.94 249.29 166.45 247.13 168.02C245.219 169.285 243.53 170.856 242.13 172.67C241.703 173.209 241.415 173.845 241.291 174.522C241.167 175.198 241.212 175.895 241.42 176.55C242.15 178.76 242.92 180.95 243.67 183.16C244.51 185.653 245.34 188.147 246.16 190.64C246.35 191.22 246.48 191.83 246.66 192.52C249.616 190.862 252.8 189.649 256.11 188.92C256.01 188.56 255.97 188.3 255.89 188.05C255.17 185.77 254.43 183.49 253.72 181.2C253.687 181.026 253.609 180.864 253.493 180.731C253.377 180.597 253.227 180.497 253.06 180.44C252.49 180.24 252.45 179.75 252.93 179.37C253.276 179.111 253.644 178.883 254.03 178.69C256.3 177.42 258.58 176.18 260.83 174.9C262.71 173.83 264.58 172.74 266.42 171.61C268.027 170.668 269.535 169.566 270.92 168.32C272.791 166.584 274 164.25 274.34 161.72C274.52 160.432 274.449 159.121 274.13 157.86C273.13 157.86 272.13 157.86 271.18 157.86C270.853 157.901 270.549 158.053 270.32 158.29C269.972 158.65 269.551 158.933 269.086 159.119C268.62 159.305 268.121 159.391 267.62 159.37C266.117 159.423 264.622 159.143 263.24 158.55C261.08 157.68 258.93 157.84 256.59 158.11ZM206.83 85.89L206.6 85.8C206.21 86.15 205.83 86.52 205.44 86.86C203.84 88.22 202.26 89.6 200.63 90.92C198.82 92.38 196.96 93.77 195.13 95.22C193.3 96.67 191.47 98.22 189.64 99.66C188.22 100.81 186.82 101.99 185.38 103.12C183.94 104.25 182.73 105.12 181.38 106.12C180.58 106.613 179.827 107.179 179.13 107.81C181.548 109.39 184.206 110.568 187 111.3C189.191 111.87 191.42 112.281 193.67 112.53C196.907 112.945 200.183 112.945 203.42 112.53C204.8 112.34 206.14 111.9 207.49 111.53C207.589 111.518 207.684 111.486 207.771 111.436C207.857 111.387 207.933 111.32 207.993 111.241C208.054 111.162 208.098 111.072 208.123 110.975C208.148 110.879 208.154 110.779 208.14 110.68C208.14 110.02 208.14 109.35 208.21 108.68C208.391 106.684 208.391 104.676 208.21 102.68C207.82 98.48 207.51 94.26 207.21 90.05C207.08 88.74 207 87.32 206.83 85.89ZM275.35 158.07C275.538 159.325 275.572 160.597 275.45 161.86C275.222 163.581 274.653 165.239 273.778 166.738C272.902 168.237 271.737 169.546 270.35 170.59C269.43 171.34 268.35 171.95 267.35 172.59C266.83 172.94 266.29 173.28 265.76 173.59C265.62 173.65 265.506 173.76 265.442 173.898C265.377 174.037 265.366 174.194 265.41 174.34C265.58 174.98 265.68 175.64 265.87 176.27C266.64 178.82 267.46 181.36 268.2 183.91C269.02 186.79 269.81 189.68 270.55 192.58C271.29 195.48 271.93 198.2 272.61 201.01C272.98 202.52 273.34 204.01 273.71 205.56C275.12 205.17 276.51 204.75 277.93 204.41C279.35 204.07 280.77 203.83 282.29 203.53C282.2 202.79 282.13 202.14 282.06 201.48C281.91 200.06 281.74 198.64 281.61 197.22C281.39 194.7 281.23 192.22 280.99 189.66C280.79 187.51 280.53 185.36 280.27 183.21C279.95 180.44 279.61 177.66 279.27 174.89C279.1 173.51 278.93 172.12 278.72 170.75C278.48 169.1 278.14 167.47 277.96 165.82C277.7 163.53 277.54 161.24 277.33 158.95C277.33 158.57 277.18 158.19 277.1 157.79C276.502 157.674 275.882 157.773 275.35 158.07ZM247.35 151.07C247.493 151.259 247.657 151.43 247.84 151.58C249.934 152.808 252.171 153.775 254.5 154.46C255.58 154.77 256.64 155.19 257.71 155.55C259.88 156.28 262.04 157.06 264.23 157.72C265.287 158.013 266.368 158.21 267.46 158.31C267.923 158.406 268.405 158.336 268.82 158.11C269.236 157.885 269.558 157.52 269.73 157.08C269.99 156.51 270.34 155.97 270.58 155.39C271.21 153.89 271.79 152.39 272.41 150.85C272.71 150.11 273.08 149.4 273.34 148.65C273.78 147.33 274.18 145.99 274.55 144.65C275.444 141.789 276.044 138.843 276.34 135.86C276.565 133.806 276.219 131.73 275.34 129.86C274.34 127.99 272.44 127.51 271.09 128.86C269.958 129.956 269.181 131.367 268.86 132.91C268.32 135.59 267.86 138.28 267.39 140.91C266.89 143.8 266.39 146.69 265.96 149.57C265.88 150.02 265.68 150.44 266.23 150.8C266.52 150.99 266.34 151.36 265.95 151.41C265.752 151.445 265.548 151.445 265.35 151.41C264.22 151.14 263.09 150.88 261.97 150.56C260.85 150.24 259.48 149.81 258.25 149.43L252.35 147.58C250.63 147.04 248.91 146.53 247.19 146.01C247.063 145.939 246.92 145.902 246.775 145.902C246.63 145.902 246.487 145.939 246.36 146.01C246.75 146.54 247.57 146.41 247.77 147.12C247.21 147.62 246.53 146.77 245.91 147.4C246.151 147.662 246.409 147.909 246.68 148.14C246.86 148.28 247.1 148.34 247.29 148.46C247.48 148.58 247.84 148.86 247.66 149.17C247.48 149.48 247.22 149.34 247 149.43C247 149.43 246.95 149.53 246.93 149.58L248.16 150.52L247.35 151.07ZM292.65 156.34C293.19 148.56 292.84 140.99 293.13 133.34C292.79 133.52 292.54 133.62 292.33 133.76C290.81 134.83 289.27 135.89 287.76 136.98C283.93 139.76 280.12 142.56 276.29 145.33C275.776 145.69 275.396 146.211 275.21 146.81C274.274 149.899 273.135 152.922 271.8 155.86C271.675 156.158 271.574 156.466 271.5 156.78L292.65 156.34ZM206.07 82.86C205.771 83.2094 205.454 83.5432 205.12 83.86C203.34 85.46 201.58 87.08 199.76 88.63C196.9 91.06 194.03 93.49 191.09 95.83C189.15 97.39 187.09 98.83 185.09 100.25C183.09 101.67 180.73 103.06 178.48 104.36C176.84 105.3 175.12 106.12 173.41 106.91C172.323 107.412 171.2 107.833 170.05 108.17C169.05 108.46 168.05 108.53 167.05 108.78C165.731 109.054 164.369 109.054 163.05 108.78C162.623 108.718 162.218 108.552 161.869 108.298C161.52 108.044 161.239 107.708 161.05 107.32C160.546 106.259 160.379 105.069 160.57 103.91C160.806 102.024 161.368 100.194 162.23 98.5C162.76 97.41 163.46 96.4 164.14 95.27C163.75 94.62 163.34 93.91 162.89 93.15C162.764 93.2389 162.647 93.3393 162.54 93.45C161.09 95.36 159.54 97.22 158.23 99.2C156.11 102.313 154.374 105.671 153.06 109.2C152.517 110.571 152.331 112.058 152.52 113.52C152.545 113.963 152.699 114.389 152.964 114.744C153.229 115.1 153.593 115.37 154.01 115.52C155.085 115.892 156.229 116.021 157.36 115.9C159.8 115.552 162.215 115.047 164.59 114.39C164.935 114.299 165.269 114.175 165.59 114.02C166.7 113.49 167.8 112.95 168.89 112.38C172.303 110.58 175.637 108.623 178.89 106.51C180.89 105.255 182.783 103.836 184.55 102.27C185.95 100.99 187.46 99.84 188.93 98.64C190.4 97.44 191.7 96.45 193.07 95.35C195.41 93.47 197.74 91.6 200.07 89.71C202.03 88.0967 203.97 86.4734 205.89 84.84C206.6 84.19 206.59 84 206.07 82.86ZM265.79 143.86L249 134.35C248.94 138.11 249 141.78 249.24 145.53L264.86 150.2C265.18 148.06 265.47 146.07 265.79 143.89V143.86ZM250.79 133.3L250.7 133.55C255.753 136.51 260.813 139.463 265.88 142.41C266.676 139.36 267.192 136.244 267.42 133.1L250.79 133.3ZM277.87 132.61C277.866 133.359 277.819 134.107 277.73 134.85C277.28 137.47 276.78 140.09 276.3 142.7C276.24 143.01 276.19 143.31 276.14 143.62C281.29 139.74 286.52 136.13 291.8 132.52C287.14 132.32 282.56 132.49 277.83 132.64L277.87 132.61ZM252.28 201L259.35 198.54L256.44 189.89C253.96 190.89 251.38 191.39 248.99 192.71L252.28 201ZM164.81 96.61C164.5 97.1 164.15 97.54 163.9 98.03C163.081 99.6168 162.453 101.295 162.03 103.03C161.805 104.041 161.805 105.089 162.03 106.1C162.062 106.452 162.217 106.781 162.467 107.03C162.718 107.278 163.048 107.431 163.4 107.46C163.958 107.558 164.524 107.602 165.09 107.59C167.716 107.456 170.292 106.822 172.68 105.72C172.863 105.604 173.034 105.47 173.19 105.32C171.71 103.9 170.19 102.57 168.85 101.14C167.51 99.71 166.2 98.19 164.81 96.61ZM260.44 201C259.857 201.275 259.372 201.722 259.05 202.28C258.61 202.95 258.19 203.63 257.72 204.28C256.594 205.941 255.043 207.27 253.23 208.13C252.503 208.502 251.707 208.721 250.892 208.774C250.077 208.827 249.26 208.714 248.49 208.44C248.338 208.386 248.172 208.386 248.02 208.44C247.419 208.685 246.886 209.072 246.468 209.569C246.05 210.065 245.759 210.656 245.62 211.29C245.986 211.442 246.368 211.55 246.76 211.61C248.32 211.61 249.89 211.7 251.44 211.61C253.19 211.49 254.833 210.724 256.05 209.46C256.7 208.8 257.36 208.14 258.05 207.46C258.41 207.11 258.77 206.76 259.16 206.46C259.83 205.96 260.25 206.1 260.44 206.93C260.536 207.452 260.596 207.98 260.62 208.51C260.62 208.89 260.62 209.28 260.62 209.66C261 206.77 261.6 203.91 260.44 201ZM277.44 213.49L283.49 212.04C283.1 209.58 282.73 207.27 282.35 204.95L275.77 206.28C276.34 208.72 276.89 211.07 277.44 213.47V213.49ZM271.15 224.96C271.343 224.977 271.537 224.977 271.73 224.96C272.89 224.82 274.05 224.74 275.19 224.51C276.94 224.16 278.69 223.76 280.41 223.29C280.876 223.197 281.308 222.98 281.66 222.661C282.012 222.342 282.271 221.934 282.41 221.48C282.625 220.85 282.903 220.244 283.24 219.67C283.49 219.21 283.76 218.59 284.35 218.67C284.94 218.75 285.02 219.41 285.13 219.92C285.3 220.65 285.43 221.38 285.57 222.11C285.554 220.915 285.457 219.722 285.28 218.54C285.18 217.265 284.872 216.016 284.37 214.84C283.306 215.772 282.466 216.93 281.91 218.23C281.058 219.785 279.764 221.052 278.19 221.87C276.71 222.57 275.086 222.912 273.45 222.87C273.16 222.87 272.78 222.87 272.59 222.98C271.881 223.429 271.367 224.129 271.15 224.94V224.96ZM283.74 213L282.24 213.41C280.89 213.78 279.55 214.17 278.24 214.51C277.34 214.73 277.31 214.63 277.16 215.63C276.935 217.701 275.995 219.629 274.5 221.08C274.37 221.239 274.249 221.406 274.14 221.58C274.74 221.46 275.2 221.41 275.64 221.28C277.81 220.67 279.74 219.73 280.83 217.59C281.03 217.21 281.29 216.86 281.48 216.47C281.968 215.479 282.728 214.647 283.67 214.07C284.11 213.8 284.06 213.5 283.74 213ZM250 207.28C250.93 207.343 251.863 207.196 252.728 206.85C253.594 206.504 254.37 205.967 255 205.28C256.13 204.02 257.17 202.68 258.27 201.39C258.75 200.83 259.27 200.33 259.84 199.78C259.73 199.7 259.63 199.58 259.58 199.6C257.19 200.5 254.81 201.42 252.38 202.35C252.493 203.313 252.329 204.288 251.908 205.161C251.486 206.035 250.824 206.77 250 207.28ZM249 156.76H257.11V156.63L248.99 153.63L249 156.76ZM259.31 212.12C259.415 210.585 259.415 209.045 259.31 207.51L254.57 212.12H259.31Z" fill="black"/>
<g clip-path="url(#paint0_diamond_119_62_clip_path)" data-figma-skip-parse="true"><g transform="matrix(0.0691713 0.0606775 -0.0510825 0.182993 155.41 170.256)"><rect x="0" y="0" width="1907.11" height="1113.13" fill="url(#paint0_diamond_119_62)" opacity="1" shape-rendering="crispEdges"/><rect x="0" y="0" width="1907.11" height="1113.13" transform="scale(1 -1)" fill="url(#paint0_diamond_119_62)" opacity="1" shape-rendering="crispEdges"/><rect x="0" y="0" width="1907.11" height="1113.13" transform="scale(-1 1)" fill="url(#paint0_diamond_119_62)" opacity="1" shape-rendering="crispEdges"/><rect x="0" y="0" width="1907.11" height="1113.13" transform="scale(-1)" fill="url(#paint0_diamond_119_62)" opacity="1" shape-rendering="crispEdges"/></g></g><path d="M113.82 105.54C114.82 105.45 115.63 105.43 116.47 105.28C119.575 104.844 122.736 105.065 125.75 105.93C127.939 106.531 129.999 107.528 131.83 108.87C134.39 110.613 136.757 112.624 138.89 114.87C139.583 115.672 140.224 116.517 140.81 117.4C142.166 119.209 143.198 121.239 143.86 123.4C144.42 125.4 145.03 127.4 145.42 129.48C145.774 131.41 146.008 133.361 146.12 135.32C146.214 137.454 145.913 139.586 145.23 141.61C144.03 145.43 142.41 149.01 139.31 151.71C137.51 153.28 135.71 154.85 133.88 156.39C133.409 156.811 132.884 157.167 132.32 157.45C129.775 158.7 127.059 159.566 124.26 160.02C121.339 160.513 118.382 160.758 115.42 160.75C114.985 160.774 114.551 160.821 114.12 160.89C114.32 170.79 114.52 180.61 114.72 190.53L115.92 190.46C116.85 190.37 117.77 190.22 118.7 190.19C121.56 190.09 124.42 190.04 127.28 189.96C129.17 189.91 131.07 189.79 132.97 189.77C135.1 189.77 137.23 189.83 139.36 189.82C143.52 189.82 147.68 189.72 151.84 189.69H158.32H166.9H180.57C180.816 189.671 181.061 189.631 181.3 189.57C181.308 189.48 181.308 189.39 181.3 189.3C181.264 189.17 181.217 189.043 181.16 188.92C179.624 186.272 178.396 183.457 177.5 180.53L177.435 180.312C176.816 178.224 176.194 176.126 175.75 173.99C175.22 170.567 175.22 167.083 175.75 163.66C176.034 161.448 176.737 159.31 177.82 157.36C178.365 156.147 178.982 154.968 179.67 153.83C180.524 152.645 181.449 151.513 182.44 150.44C183.07 149.71 183.738 149.012 184.44 148.35C185.58 147.28 186.7 146.19 187.93 145.24C189.16 144.29 190.64 143.52 191.93 142.55C193.268 141.564 194.735 140.766 196.29 140.18C199.12 138.993 202.08 138.147 205.11 137.66L208.11 137.24V113C207.944 112.984 207.776 112.984 207.61 113C205.758 113.538 203.86 113.9 201.94 114.08C201.381 114.166 200.816 114.213 200.25 114.22C198.49 114.173 196.73 114.093 194.97 113.98C191.911 113.863 188.882 113.324 185.97 112.38C183.76 111.59 181.43 111.04 179.51 109.58C179.01 109.2 178.51 108.86 177.95 108.5C175.85 109.74 173.78 110.95 171.73 112.18C169.007 113.919 166.027 115.219 162.9 116.03C162.15 116.21 161.41 116.4 160.66 116.56C158.48 117.04 156.3 117.5 154.06 116.83C153.356 116.681 152.71 116.334 152.197 115.828C151.685 115.323 151.329 114.682 151.17 113.98C150.824 112.576 150.915 111.101 151.43 109.75C152.29 107.53 153.19 105.3 154.27 103.17C155.216 101.418 156.268 99.7247 157.42 98.1C158.42 96.58 159.55 95.1 160.65 93.66C161.08 93.08 161.58 92.56 162.08 91.98C161.77 91.38 161.47 90.83 161.21 90.26C160.68 89.11 160.21 87.96 159.69 86.8C159.52 86.41 159.5 85.96 159.34 85.56C158.656 83.6476 158.166 81.6709 157.88 79.66C157.519 77.8003 157.271 75.9201 157.14 74.03C157.025 72.1052 157.085 70.1739 157.32 68.26C157.614 66.0143 158.153 63.8076 158.93 61.68C159.683 59.5107 160.555 57.3842 161.54 55.31C162.344 53.7069 163.353 52.2145 164.54 50.87C165.95 49.23 167.29 47.53 168.66 45.87C168.95 45.52 169.27 45.21 169.66 44.87C169.38 44.73 169.25 44.63 169.1 44.58C167.3 44.08 165.52 43.52 163.71 43.12C162.043 42.621 160.28 42.5284 158.57 42.85L151.57 44.66C150.068 45.0988 148.619 45.7024 147.25 46.46C145.88 47.14 144.5 47.8 143.14 48.46C142.064 48.959 141.015 49.5165 140 50.13C138.33 51.21 136.69 52.35 135.08 53.53C133.63 54.53 132.21 55.69 130.85 56.85C129.77 57.78 128.8 58.85 127.76 59.85C125.691 61.687 123.893 63.8081 122.42 66.15C121.532 67.4739 120.731 68.8534 120.02 70.28C118.78 73.08 117.72 75.95 116.58 78.79C115.791 80.7601 115.26 82.8239 115 84.93C114.64 87.93 114.46 90.87 114.27 93.85C114.07 97.07 113.94 100.3 113.79 103.52C113.79 104.18 113.82 104.83 113.82 105.54Z" data-figma-gradient-fill="{&#34;type&#34;:&#34;GRADIENT_DIAMOND&#34;,&#34;stops&#34;:[{&#34;color&#34;:{&#34;r&#34;:0.82094663381576538,&#34;g&#34;:0.96248370409011841,&#34;b&#34;:0.87520253658294678,&#34;a&#34;:1.0},&#34;position&#34;:0.0},{&#34;color&#34;:{&#34;r&#34;:0.69679605960845947,&#34;g&#34;:0.91031211614608765,&#34;b&#34;:0.90557742118835449,&#34;a&#34;:1.0},&#34;position&#34;:0.250},{&#34;color&#34;:{&#34;r&#34;:0.62888628244400024,&#34;g&#34;:0.87944775819778442,&#34;b&#34;:0.89350777864456177,&#34;a&#34;:1.0},&#34;position&#34;:0.50},{&#34;color&#34;:{&#34;r&#34;:0.17338141798973083,&#34;g&#34;:0.69287389516830444,&#34;b&#34;:0.77552086114883423,&#34;a&#34;:1.0},&#34;position&#34;:0.750},{&#34;color&#34;:{&#34;r&#34;:0.18352760374546051,&#34;g&#34;:0.45334574580192566,&#34;b&#34;:0.85807293653488159,&#34;a&#34;:1.0},&#34;position&#34;:1.0}],&#34;stopsVar&#34;:[{&#34;color&#34;:{&#34;r&#34;:0.82094663381576538,&#34;g&#34;:0.96248370409011841,&#34;b&#34;:0.87520253658294678,&#34;a&#34;:1.0},&#34;position&#34;:0.0},{&#34;color&#34;:{&#34;r&#34;:0.69679605960845947,&#34;g&#34;:0.91031211614608765,&#34;b&#34;:0.90557742118835449,&#34;a&#34;:1.0},&#34;position&#34;:0.250},{&#34;color&#34;:{&#34;r&#34;:0.62888628244400024,&#34;g&#34;:0.87944775819778442,&#34;b&#34;:0.89350777864456177,&#34;a&#34;:1.0},&#34;position&#34;:0.50},{&#34;color&#34;:{&#34;r&#34;:0.17338141798973083,&#34;g&#34;:0.69287389516830444,&#34;b&#34;:0.77552086114883423,&#34;a&#34;:1.0},&#34;position&#34;:0.750},{&#34;color&#34;:{&#34;r&#34;:0.18352760374546051,&#34;g&#34;:0.45334574580192566,&#34;b&#34;:0.85807293653488159,&#34;a&#34;:1.0},&#34;position&#34;:1.0}],&#34;transform&#34;:{&#34;m00&#34;:138.34266662597656,&#34;m01&#34;:-102.16500091552734,&#34;m02&#34;:137.32090759277344,&#34;m10&#34;:121.35505676269531,&#34;m11&#34;:365.98641967773438,&#34;m12&#34;:-73.414382934570312},&#34;opacity&#34;:1.0,&#34;blendMode&#34;:&#34;NORMAL&#34;,&#34;visible&#34;:true}"/>
<path d="M289.66 95.88H282.28C280.72 95.88 279.16 95.88 277.6 95.98C275.6 96.05 273.55 96.19 271.52 96.26C269.33 96.34 267.13 96.35 264.93 96.42C262.08 96.5 259.22 96.63 256.37 96.69C253.94 96.69 251.52 96.69 249.1 96.69C245.34 96.77 241.59 96.93 237.84 97.02C236.14 97.02 234.44 97.02 232.75 97.02C231.75 97.02 231.75 96.84 231.68 95.84C231.61 94.84 231.45 93.6 231.35 92.47C231.22 90.95 231.09 89.47 231 87.89C230.88 86 230.74 84.11 230.74 82.21C230.74 79.75 230.82 77.29 230.91 74.83C231.068 71.673 231.433 68.5296 232 65.42C232.522 61.9585 233.755 58.6424 235.62 55.68C238.347 51.3592 242.036 47.7278 246.4 45.07C248.36 43.9328 250.439 43.014 252.6 42.33C256.02 41.2056 259.582 40.5759 263.18 40.46C265.576 40.4083 267.97 40.6433 270.31 41.16C273.45 41.7941 276.449 42.9936 279.16 44.7C281.479 46.1518 283.572 47.9377 285.37 50C287.07 52 288.7 54 290.24 56.06C291.282 57.5994 292.091 59.2843 292.64 61.06C293.871 64.9453 294.544 68.9856 294.64 73.06C294.75 74.92 294.87 76.78 294.95 78.64C294.95 79.43 294.95 80.23 294.95 81.03C294.95 82.69 295 84.35 294.95 86.03C294.88 88.69 294.76 91.35 294.63 94.03C294.57 95.26 294.22 95.59 292.97 95.68C291.88 95.76 290.78 95.82 289.69 95.88H289.66ZM257.76 80.57C257.675 80.5189 257.585 80.4785 257.49 80.45C256.061 80.3344 254.655 80.0248 253.31 79.53C252.184 79.173 251.079 78.7523 250 78.27C247.682 76.9709 245.478 75.4789 243.41 73.81C243.026 73.5069 242.668 73.1724 242.34 72.81C242.28 72.7513 242.233 72.6813 242.2 72.6041C242.168 72.5268 242.151 72.4438 242.151 72.36C242.151 72.2762 242.168 72.1932 242.2 72.116C242.233 72.0387 242.28 71.9687 242.34 71.91C242.74 71.3917 243.181 70.9068 243.66 70.46C245.03 69.26 246.37 68.01 247.83 66.92C250.374 64.974 253.323 63.6272 256.46 62.98C257.599 62.7347 258.766 62.6373 259.93 62.69C261.716 62.8355 263.493 63.0859 265.25 63.44C266.951 63.7928 268.557 64.5054 269.96 65.53C271.07 66.32 272.22 67.05 273.29 67.89C274.357 68.6951 275.269 69.688 275.98 70.82C276.238 71.2647 276.331 71.7858 276.243 72.2922C276.155 72.7986 275.892 73.258 275.5 73.59C274.614 74.3404 273.682 75.0351 272.71 75.67C271.25 76.59 269.71 77.41 268.23 78.27C266.105 79.4453 263.772 80.1959 261.36 80.48C261.12 80.48 260.9 80.56 260.59 80.62C260.74 80.77 260.78 80.84 260.83 80.85C262.44 81.3327 263.884 82.2537 265 83.51C265.812 84.2731 266.421 85.2273 266.77 86.2857C267.12 87.3442 267.199 88.4732 267 89.57C266.675 91.2498 265.836 92.7873 264.6 93.97C264.31 94.26 264.01 94.54 263.6 94.97L271.1 94.75C273.5 94.66 275.89 94.6 278.28 94.44C280.67 94.28 283.11 94.44 285.52 94.21C285.52 93.96 285.52 93.83 285.52 93.7C285.52 91.8 285.52 89.9 285.57 88.01C285.68 85.12 285.95 82.23 286.02 79.34C286.09 76.45 286.02 73.82 285.96 71.06C285.915 69.5981 285.795 68.1395 285.6 66.69C285.236 64.4577 284.591 62.2804 283.68 60.21C283.161 58.9157 282.515 57.6762 281.75 56.51C280.769 55.0894 279.714 53.7209 278.59 52.41C277.959 51.692 277.273 51.0233 276.54 50.41C275.025 49.058 273.38 47.8589 271.63 46.83C268.844 45.0825 265.81 43.7675 262.63 42.93C261.452 42.5726 260.22 42.4237 258.99 42.49C256.711 42.7442 254.478 43.306 252.35 44.16C249.117 45.3142 246.111 47.0268 243.47 49.22C239.95 52.38 236.83 55.83 235.06 60.32C234.383 61.9488 233.909 63.6551 233.65 65.4C233.56 66.03 233.46 66.65 233.37 67.28C233.1 69.12 232.77 70.95 232.58 72.8C232.42 74.28 232.41 75.8 232.35 77.26C232.35 78.39 232.2 79.52 232.23 80.64C232.31 83.64 232.46 86.56 232.58 89.51C232.65 91.18 232.71 92.84 232.8 94.51C232.852 94.8921 232.932 95.2699 233.04 95.64L255 95C254.55 94.61 254.3 94.37 254 94.15C253.005 93.4414 252.201 92.4964 251.662 91.4002C251.123 90.304 250.864 89.0909 250.91 87.87C250.871 87.0372 251.016 86.206 251.334 85.4353C251.652 84.6646 252.135 83.9732 252.75 83.41C253.495 82.799 254.291 82.2537 255.13 81.78C256 81.35 256.85 81 257.76 80.57ZM263.54 64.67C263.82 65.98 264.06 67.18 264.33 68.37C264.583 69.5457 264.538 70.766 264.2 71.92C263.907 73.2759 263.091 74.4616 261.93 75.22C260.331 76.2594 258.476 76.8373 256.57 76.89C255.603 76.9726 254.63 76.8213 253.734 76.4488C252.837 76.0763 252.044 75.4937 251.42 74.75C250.961 74.1811 250.566 73.5642 250.24 72.91C249.498 71.678 249.13 70.2572 249.18 68.82C249.201 68.487 249.201 68.153 249.18 67.82C247.18 68.95 244.51 71.29 243.98 72.37C244.73 72.92 245.51 73.47 246.28 74.04C247.939 75.3176 249.749 76.3857 251.67 77.22C252.916 77.7677 254.217 78.1833 255.55 78.46C257.404 78.8723 259.312 78.9804 261.2 78.78C262.488 78.6539 263.75 78.3441 264.95 77.86C266.69 77.11 268.38 76.25 270.06 75.39C271.498 74.6712 272.841 73.7778 274.06 72.73C274.37 72.45 274.7 72.2 275.12 71.86C274.744 71.3952 274.344 70.9513 273.92 70.53C272.92 69.66 271.92 68.83 270.84 67.99C269.023 66.4659 266.887 65.369 264.59 64.78C264.243 64.7217 263.892 64.685 263.54 64.67ZM252.35 88.47C252.371 89.2737 252.58 90.0613 252.96 90.77C253.929 92.1627 255.158 93.3547 256.58 94.28C257.122 94.6717 257.763 94.9038 258.43 94.95C261.34 95.27 264.81 92.82 265.43 90.4C265.731 89.5007 265.806 88.5409 265.647 87.6059C265.488 86.6708 265.101 85.7895 264.52 85.04C264.026 84.4147 263.458 83.8506 262.83 83.36C262.083 82.6872 261.167 82.2311 260.18 82.0408C259.193 81.8504 258.173 81.9332 257.23 82.28C256.462 82.6475 255.717 83.0616 255 83.52C253 84.59 252.34 86.39 252.35 88.47Z" fill="black"/>
<path d="M274.09 119L276.53 119.86C275.53 120.44 274.66 119.95 273.67 119.75L273.42 121.39L274.66 121.02C274.87 120.919 275.097 120.857 275.33 120.84C275.437 120.858 275.538 120.898 275.629 120.956C275.72 121.015 275.799 121.091 275.86 121.18C275.92 121.27 275.8 121.54 275.69 121.67C275.519 121.804 275.334 121.922 275.14 122.02C275.46 122.29 276.03 122.4 275.81 122.89C275.59 123.38 275.06 123.25 274.66 123.15C274.26 123.05 273.61 122.78 272.97 122.55C272.33 123.26 271.57 124.01 270.92 124.84C269.872 126.081 268.587 127.101 267.14 127.84C265.69 128.65 264.27 129.53 262.87 130.41C262.07 130.91 261.87 130.92 261.32 130.17C260.826 129.502 260.485 128.734 260.32 127.92C259.97 125.967 259.863 123.979 260 122C259.182 121.622 258.387 121.194 257.62 120.72C256.543 119.981 255.631 119.026 254.942 117.915C254.254 116.805 253.804 115.564 253.62 114.27C253.624 114.237 253.624 114.203 253.62 114.17C253.43 112.74 253.62 112.4 255.05 112.28C256.48 112.16 257.97 112.17 259.44 112.17C259.731 112.195 260.024 112.148 260.293 112.033C260.561 111.917 260.797 111.738 260.98 111.51C261.669 110.597 262.586 109.881 263.639 109.435C264.693 108.989 265.845 108.829 266.98 108.97C267.87 109.07 268.47 108.49 269.12 108.05C269.39 107.86 269.6 107.57 269.88 107.41C270.156 107.285 270.444 107.188 270.74 107.12L270.91 107.33L270.3 108.42C270.9 108.31 271.36 107.72 272.07 107.93C272.26 108.61 271.73 108.78 271.32 109C270.91 109.22 270.42 109.42 269.86 109.68C271.32 110.68 272.95 110.96 274.4 111.68C275.85 112.4 277.4 112.94 278.91 113.59C278.15 114.07 277.12 113.87 273.91 112.7C275.32 113.87 277 113.97 278.39 114.7C278.26 115.42 278.28 116.14 277.39 116.41C277.295 116.468 277.215 116.549 277.157 116.644C277.1 116.74 277.066 116.848 277.06 116.96C277.06 117.64 277.06 118.32 277.14 119.15C276.74 119.59 276.19 119.15 275.67 119.08C275.15 119.011 274.636 118.908 274.13 118.77L274.09 119ZM272.61 121.28C272.659 120.805 272.679 120.327 272.67 119.85C272.631 119.608 272.511 119.386 272.33 119.22C272.143 119.08 271.938 118.965 271.72 118.88C269.762 117.884 267.979 116.577 266.44 115.01C265.931 114.548 265.573 113.942 265.414 113.273C265.256 112.604 265.303 111.902 265.55 111.26C265.765 110.829 266.023 110.42 266.32 110.04C265.409 110.054 264.511 110.265 263.688 110.656C262.865 111.048 262.136 111.612 261.55 112.31C261.302 112.591 260.992 112.812 260.646 112.956C260.299 113.1 259.925 113.163 259.55 113.14C258.55 113.14 257.55 113.23 256.55 113.28C256.509 113.734 256.325 114.163 256.025 114.506C255.725 114.849 255.324 115.088 254.88 115.19C255.322 116.85 256.244 118.342 257.53 119.48C257.682 119.61 257.864 119.699 258.06 119.74C258.256 119.78 258.459 119.77 258.65 119.71C259.603 119.527 260.488 119.088 261.21 118.44C261.46 118.21 261.75 118 262 117.8C262.51 118.16 262.41 118.48 262.15 118.8C261.609 119.482 260.904 120.016 260.1 120.35C259.868 120.458 259.645 120.581 259.43 120.72C260 120.94 260.55 120.98 260.81 121.29C261.07 121.6 261 122.14 261.09 122.63C262.612 122.858 264.163 122.794 265.66 122.44C267.786 121.775 270.002 121.437 272.23 121.44C272.364 121.406 272.492 121.352 272.61 121.28ZM277.02 115.28L276.43 115.02C275.11 114.42 273.67 114.02 272.64 112.9C272.387 112.687 272.104 112.511 271.8 112.38C271.09 111.96 270.36 111.57 269.67 111.12C269.163 110.738 268.533 110.556 267.9 110.61C267.676 110.626 267.459 110.689 267.261 110.795C267.063 110.901 266.891 111.047 266.754 111.225C266.617 111.402 266.519 111.607 266.466 111.825C266.414 112.043 266.409 112.27 266.45 112.49C266.514 112.969 266.68 113.428 266.937 113.837C267.194 114.246 267.536 114.595 267.94 114.86C270.266 116.28 272.781 117.364 275.41 118.08C275.624 118.121 275.842 118.141 276.06 118.14C276.05 117.05 276 116 277 115.26L277.02 115.28ZM262.14 129.76L262.65 129.43C263.975 128.494 265.347 127.627 266.76 126.83C268.85 125.83 270.21 124 271.88 122.32C271.67 122.305 271.46 122.305 271.25 122.32C269.85 122.6 268.45 122.85 267.06 123.17C265.266 123.679 263.402 123.891 261.54 123.8C261.348 123.8 261.157 123.82 260.97 123.86C260.842 125.888 261.246 127.915 262.14 129.74V129.76Z" fill="black"/>
<path d="M160.41 170.17C160.33 170.93 160.26 171.69 160.16 172.45C159.906 173.709 159.276 174.861 158.353 175.754C157.429 176.647 156.257 177.238 154.99 177.45C154.794 177.471 154.6 177.508 154.41 177.56C153.086 177.854 151.708 177.803 150.41 177.41C149.585 177.255 148.828 176.85 148.24 176.25C146.58 174.64 145.38 172.82 145.48 170.4C145.495 169.082 145.799 167.784 146.371 166.597C146.943 165.41 147.769 164.363 148.79 163.53C149.517 162.935 150.398 162.557 151.33 162.44C153.33 162.15 155.33 162.13 157.08 163.44C158.186 164.162 159.078 165.167 159.663 166.351C160.249 167.534 160.507 168.853 160.41 170.17ZM158.94 169.73C159.004 168.553 158.65 167.391 157.94 166.45C157.324 165.368 156.336 164.547 155.16 164.14C153.55 163.671 151.828 163.767 150.28 164.41C149.715 164.677 149.216 165.066 148.82 165.55C147.907 166.713 147.305 168.09 147.07 169.55C146.41 172.29 148.21 174.44 149.91 175.77C150.026 175.836 150.151 175.887 150.28 175.92C152.043 176.593 153.999 176.55 155.73 175.8C156.488 175.562 157.168 175.123 157.696 174.53C158.224 173.936 158.582 173.211 158.73 172.43C158.8 171.51 158.85 170.62 158.94 169.73Z" fill="black"/>
<path d="M129.69 66.5C129.903 66.5252 130.106 66.6034 130.281 66.7274C130.455 66.8515 130.596 67.0174 130.69 67.21C131.69 68.64 132.75 70.07 133.69 71.53C135.2 73.79 136.69 76.06 138.14 78.37C139.98 81.37 141.74 84.37 143.53 87.37C143.6 87.49 143.63 87.62 143.7 87.73C143.9 88.05 143.97 88.39 143.64 88.62C143.31 88.85 142.94 88.62 142.72 88.32C142.21 87.66 141.72 86.99 141.28 86.32C139.57 83.56 137.85 80.8 136.19 78.01C134.53 75.22 132.98 72.5 131.38 69.75C130.88 68.89 130.38 68.02 129.91 67.16C129.824 66.9443 129.751 66.7239 129.69 66.5Z" fill="black"/>
<path d="M186.72 126.55C186.495 127.085 186.12 127.544 185.64 127.87C183.15 129.87 180.64 131.98 178.16 133.97C175.95 135.864 173.611 137.601 171.16 139.17C171.054 139.249 170.944 139.323 170.83 139.39C170.704 139.475 170.549 139.507 170.399 139.479C170.25 139.451 170.117 139.365 170.03 139.24C169.969 139.18 169.923 139.107 169.894 139.027C169.864 138.947 169.853 138.861 169.861 138.776C169.868 138.691 169.895 138.609 169.938 138.535C169.981 138.462 170.04 138.398 170.11 138.35C170.73 137.86 171.37 137.35 172 136.9C173.67 135.64 175.33 134.36 177 133.12C178.28 132.12 179.59 131.27 180.89 130.34L186.01 126.71C186.198 126.594 186.391 126.487 186.59 126.39L186.72 126.55Z" fill="black"/>
<path d="M139.87 106.37L139.15 105.24C139.31 105.1 139.43 104.92 139.59 104.88C139.73 104.843 139.858 104.772 139.963 104.672C140.068 104.572 140.146 104.448 140.19 104.31C140.41 103.8 140.89 103.76 141.19 104.23C141.35 104.42 141.455 104.65 141.492 104.895C141.529 105.141 141.497 105.392 141.4 105.62C141.16 106.05 140.95 106.53 140.3 106.4C140.15 106.38 140 106.38 139.87 106.37Z" fill="black"/>
<path d="M152.53 61.39C152.388 61.6757 152.184 61.9262 151.933 62.1234C151.683 62.3206 151.391 62.4595 151.08 62.53C150.69 61.82 150.43 61.18 151.08 60.48C151.37 60.14 151.58 60.11 151.85 60.48C152.12 60.85 152.25 61 152.53 61.39Z" fill="black"/>
<path d="M167.54 124.48C167.54 124.95 166.96 125.48 166.59 125.32C166.251 125.154 165.949 124.923 165.7 124.64C165.7 124.64 165.7 124.34 165.81 124.29C166.15 124.1 166.19 123.8 166.26 123.46C166.295 123.374 166.349 123.298 166.418 123.237C166.488 123.177 166.571 123.133 166.66 123.11C166.751 123.122 166.837 123.154 166.914 123.204C166.99 123.254 167.054 123.321 167.1 123.4C167.265 123.752 167.412 124.113 167.54 124.48Z" fill="black"/>
<path d="M196.25 130.56L195.43 129.79L196.32 128.5L197.24 128.69C197.58 129.94 197.58 129.94 196.25 130.56Z" fill="black"/>
<path d="M162.3 151.63C161.972 151.722 161.638 151.789 161.3 151.83C160.73 151.83 160.49 151.48 160.65 150.91C160.75 150.57 160.88 150.24 160.99 149.91C162.1 150.17 162.21 150.3 162.3 151.63Z" fill="black"/>
<path d="M151.38 87.73L151.26 86.64L152.32 85.64L153.09 86.56C153 86.9317 152.775 87.2567 152.459 87.4727C152.144 87.6887 151.759 87.7803 151.38 87.73Z" fill="black"/>
<path d="M146.41 47.38L147.34 48.14C147.34 48.74 146.91 49 146.58 49.34C146.25 49.68 146.04 49.78 145.81 49.49C145.717 49.3617 145.652 49.2153 145.619 49.0602C145.587 48.9052 145.587 48.745 145.62 48.59C145.835 48.1573 146.1 47.7512 146.41 47.38Z" fill="black"/>
<path d="M169.54 179C168.81 178.44 169.2 177.68 169.12 177.05C169.12 176.97 169.61 176.71 169.65 176.75C169.973 177.056 170.246 177.41 170.46 177.8C170.54 177.95 170.39 178.29 170.24 178.46C170.03 178.669 169.795 178.85 169.54 179Z" fill="black"/>
<path d="M130.18 72.4399L130.97 73.5199C130.64 74.4599 130.34 74.6699 129.31 74.6999C129 73.7699 129.74 73.2399 130.18 72.4399Z" fill="black"/>
<path d="M144.13 159.61C143.7 160.9 143.22 161.03 142.35 160.05C142.69 159.72 142.49 159.05 143.13 158.87C143.77 158.69 143.84 159.33 144.13 159.61Z" fill="black"/>
<path d="M127.39 92.23C127.15 93.52 127.12 93.35 126.02 93.51C125.54 92.86 125.55 92.87 126.02 92.33C126.228 92.0642 126.422 91.7871 126.6 91.5L127.39 92.23Z" fill="black"/>
<path d="M125.82 177.47C126.29 177.28 126.68 177.14 126.92 177.71C127.038 177.963 127.062 178.249 126.989 178.518C126.916 178.787 126.75 179.022 126.52 179.18C126.445 179.213 126.363 179.228 126.281 179.221C126.2 179.215 126.121 179.188 126.052 179.143C125.984 179.098 125.927 179.037 125.889 178.965C125.85 178.893 125.83 178.812 125.83 178.73C125.79 178.32 125.82 177.89 125.82 177.47Z" fill="black"/>
<path d="M265.61 48.6899C265.35 49.2325 264.913 49.67 264.37 49.9299C262.01 51.4199 259.66 52.9299 257.25 54.3599C255.25 55.5599 253.12 56.6299 251.05 57.7499C250.93 57.8099 250.79 57.9099 250.68 57.8799C250.441 57.8136 250.21 57.7231 249.99 57.6099C250.08 57.4199 250.11 57.1399 250.25 57.0399C251.065 56.4635 251.91 55.9295 252.78 55.4399C256.29 53.5499 259.78 51.6999 263.35 49.8499C264 49.4799 264.74 49.1299 265.61 48.6899Z" fill="black"/>
<path d="M239.77 65.1C239.77 64.63 239.77 64.19 239.85 63.75C239.93 63.31 240.11 63.24 240.45 63.28C240.79 63.32 241.61 64.05 241.62 64.41C241.614 64.6333 241.533 64.848 241.39 65.02C241.18 65.2357 240.896 65.3639 240.596 65.3787C240.295 65.3936 240 65.294 239.77 65.1Z" fill="black"/>
<path d="M245.37 49.65L246.55 50.15C246.496 50.454 246.372 50.7414 246.188 50.9894C246.004 51.2375 245.765 51.4397 245.49 51.58C245.41 51.64 245.05 51.47 244.95 51.32C244.53 50.7 244.61 50.45 245.37 49.65Z" fill="black"/>
<path d="M271.83 81.7301L271.19 80.9201C271.3 80.7001 271.39 80.5001 271.51 80.3101C271.77 79.8601 272.14 79.7101 272.45 79.8901C272.602 80.0156 272.713 80.1831 272.77 80.3717C272.827 80.5603 272.827 80.7615 272.77 80.9501C272.708 81.1584 272.586 81.3437 272.418 81.4825C272.251 81.6213 272.046 81.7075 271.83 81.7301Z" fill="black"/>
<path d="M240.48 84.66C241.4 85.18 241.66 85.55 241.48 86.03C241.3 86.51 240.87 86.63 239.84 86.23L240.48 84.66Z" fill="black"/>
<path d="M272.11 52.05C271.8 52.52 271.9 53.14 271.29 53.22C270.68 53.3 270.51 52.93 270.29 52.48L271.08 51.24L272.11 52.05Z" fill="black"/>
<path d="M282.27 91.34L283.54 89.85C283.64 90.43 283.73 90.85 283.76 91.18C283.79 91.51 283.76 91.86 283.36 91.99C283.208 92.0592 283.035 92.0688 282.876 92.017C282.716 91.9652 282.582 91.8556 282.5 91.71C282.44 91.6 282.37 91.5 282.27 91.34Z" fill="black"/>
<path d="M264.29 113.09C264.008 113.316 263.694 113.502 263.36 113.64C263.278 113.655 263.194 113.651 263.115 113.627C263.035 113.603 262.962 113.56 262.902 113.503C262.843 113.445 262.798 113.374 262.771 113.295C262.745 113.216 262.737 113.132 262.75 113.05C262.754 112.967 262.774 112.887 262.81 112.812C262.847 112.738 262.898 112.672 262.961 112.619C263.024 112.565 263.097 112.525 263.176 112.501C263.255 112.478 263.338 112.47 263.42 112.48C263.67 112.52 263.89 112.79 264.29 113.09Z" fill="black"/>
<defs>
<clipPath id="paint0_diamond_119_62_clip_path"><path d="M113.82 105.54C114.82 105.45 115.63 105.43 116.47 105.28C119.575 104.844 122.736 105.065 125.75 105.93C127.939 106.531 129.999 107.528 131.83 108.87C134.39 110.613 136.757 112.624 138.89 114.87C139.583 115.672 140.224 116.517 140.81 117.4C142.166 119.209 143.198 121.239 143.86 123.4C144.42 125.4 145.03 127.4 145.42 129.48C145.774 131.41 146.008 133.361 146.12 135.32C146.214 137.454 145.913 139.586 145.23 141.61C144.03 145.43 142.41 149.01 139.31 151.71C137.51 153.28 135.71 154.85 133.88 156.39C133.409 156.811 132.884 157.167 132.32 157.45C129.775 158.7 127.059 159.566 124.26 160.02C121.339 160.513 118.382 160.758 115.42 160.75C114.985 160.774 114.551 160.821 114.12 160.89C114.32 170.79 114.52 180.61 114.72 190.53L115.92 190.46C116.85 190.37 117.77 190.22 118.7 190.19C121.56 190.09 124.42 190.04 127.28 189.96C129.17 189.91 131.07 189.79 132.97 189.77C135.1 189.77 137.23 189.83 139.36 189.82C143.52 189.82 147.68 189.72 151.84 189.69H158.32H166.9H180.57C180.816 189.671 181.061 189.631 181.3 189.57C181.308 189.48 181.308 189.39 181.3 189.3C181.264 189.17 181.217 189.043 181.16 188.92C179.624 186.272 178.396 183.457 177.5 180.53L177.435 180.312C176.816 178.224 176.194 176.126 175.75 173.99C175.22 170.567 175.22 167.083 175.75 163.66C176.034 161.448 176.737 159.31 177.82 157.36C178.365 156.147 178.982 154.968 179.67 153.83C180.524 152.645 181.449 151.513 182.44 150.44C183.07 149.71 183.738 149.012 184.44 148.35C185.58 147.28 186.7 146.19 187.93 145.24C189.16 144.29 190.64 143.52 191.93 142.55C193.268 141.564 194.735 140.766 196.29 140.18C199.12 138.993 202.08 138.147 205.11 137.66L208.11 137.24V113C207.944 112.984 207.776 112.984 207.61 113C205.758 113.538 203.86 113.9 201.94 114.08C201.381 114.166 200.816 114.213 200.25 114.22C198.49 114.173 196.73 114.093 194.97 113.98C191.911 113.863 188.882 113.324 185.97 112.38C183.76 111.59 181.43 111.04 179.51 109.58C179.01 109.2 178.51 108.86 177.95 108.5C175.85 109.74 173.78 110.95 171.73 112.18C169.007 113.919 166.027 115.219 162.9 116.03C162.15 116.21 161.41 116.4 160.66 116.56C158.48 117.04 156.3 117.5 154.06 116.83C153.356 116.681 152.71 116.334 152.197 115.828C151.685 115.323 151.329 114.682 151.17 113.98C150.824 112.576 150.915 111.101 151.43 109.75C152.29 107.53 153.19 105.3 154.27 103.17C155.216 101.418 156.268 99.7247 157.42 98.1C158.42 96.58 159.55 95.1 160.65 93.66C161.08 93.08 161.58 92.56 162.08 91.98C161.77 91.38 161.47 90.83 161.21 90.26C160.68 89.11 160.21 87.96 159.69 86.8C159.52 86.41 159.5 85.96 159.34 85.56C158.656 83.6476 158.166 81.6709 157.88 79.66C157.519 77.8003 157.271 75.9201 157.14 74.03C157.025 72.1052 157.085 70.1739 157.32 68.26C157.614 66.0143 158.153 63.8076 158.93 61.68C159.683 59.5107 160.555 57.3842 161.54 55.31C162.344 53.7069 163.353 52.2145 164.54 50.87C165.95 49.23 167.29 47.53 168.66 45.87C168.95 45.52 169.27 45.21 169.66 44.87C169.38 44.73 169.25 44.63 169.1 44.58C167.3 44.08 165.52 43.52 163.71 43.12C162.043 42.621 160.28 42.5284 158.57 42.85L151.57 44.66C150.068 45.0988 148.619 45.7024 147.25 46.46C145.88 47.14 144.5 47.8 143.14 48.46C142.064 48.959 141.015 49.5165 140 50.13C138.33 51.21 136.69 52.35 135.08 53.53C133.63 54.53 132.21 55.69 130.85 56.85C129.77 57.78 128.8 58.85 127.76 59.85C125.691 61.687 123.893 63.8081 122.42 66.15C121.532 67.4739 120.731 68.8534 120.02 70.28C118.78 73.08 117.72 75.95 116.58 78.79C115.791 80.7601 115.26 82.8239 115 84.93C114.64 87.93 114.46 90.87 114.27 93.85C114.07 97.07 113.94 100.3 113.79 103.52C113.79 104.18 113.82 104.83 113.82 105.54Z"/></clipPath><linearGradient id="paint0_diamond_119_62" x1="0" y1="0" x2="500" y2="500" gradientUnits="userSpaceOnUse">
<stop stop-color="#D1F5DF"/>
<stop offset="0.25" stop-color="#B2E8E7"/>
<stop offset="0.5" stop-color="#A0E0E4"/>
<stop offset="0.75" stop-color="#2CB1C6"/>
<stop offset="1" stop-color="#2F74DB"/>
</linearGradient>
</defs>
</svg>
