<svg width="400" height="300" viewBox="0 0 400 300" fill="none" xmlns="http://www.w3.org/2000/svg">
<path d="M313.88 165.66H296.54L288.65 165.97L283.46 164.19L282.31 160.38L284.08 157.06L287.54 155.81L293.79 157.14L301.63 154.14L307.81 150.24C307.81 150.24 313.61 149.13 313.88 149.18C314.15 149.23 321.2 152.5 321.2 152.5L324.39 157.29L326.39 162.29L325.2 164.29L321.43 165.57L313.88 165.66Z" fill="white"/>
<path d="M223.77 139.1L247.37 137.9L251.85 137.06L253.22 135.06L252.56 132.38L250.7 129.38L247.15 127.38L244.4 126.38H235.09L233.09 125.05C233.09 125.05 232.09 123.28 232.03 123.15C231.712 122.636 231.428 122.101 231.18 121.55C230.959 121.033 230.708 120.529 230.43 120.04L228.12 119.47L226.35 119.78L225 120.74L223.49 121.41L223.77 139.1Z" fill="white"/>
<path d="M153.2 95.48L112.89 96.09L104.19 95.78L98.5 94.23L94.75 88.38L97.24 81.64L101.94 79.28L106.42 79.86L113.73 82.17L119.19 81.24L123.4 77.82L129.52 72.5L133.51 71.17L137.77 71.76L141.62 77.95L146.32 81.86L153.2 82.52L157.76 83.41L163.57 87.31L165.21 92.14L163.88 94.41L158.83 95.48H153.2Z" fill="white"/>
<path d="M109.61 160.78L79.28 161.36L75.16 159.63L72.45 154.97L73.83 150L77.33 147.51L80.79 146.77L85.93 150L91.03 152.67L95.42 151.16L102.3 147.92L108.87 148.76L112.49 151.6L114.84 154.44L115.55 157.59L115.2 159.63L109.61 160.78Z" fill="white"/>
<path d="M223.26 179.59C223.26 179.27 223.31 178.96 223.26 178.59C223.21 175.7 223.17 172.8 223.09 169.91C223.01 167.02 222.9 164.05 222.84 161.12C222.78 158.19 222.84 155.12 222.73 152.12C222.62 147.46 222.46 142.8 222.34 138.12C222.34 136.12 222.34 134.12 222.34 132.12C222.28 129.29 222.15 126.46 222.09 123.63C222.02 120.63 222.01 117.63 221.96 114.63C221.96 113.9 221.9 113.17 221.85 112.44C221.729 109.14 222.151 105.843 223.1 102.68C223.43 101.43 223.75 100.17 224.18 98.95C224.73 97.42 225.36 95.95 226 94.42C227.601 90.8988 229.685 87.6174 232.19 84.67C233.44 83.13 234.95 81.8 236.36 80.38C238.217 78.5646 240.274 76.9644 242.49 75.61C244.427 74.3962 246.43 73.2912 248.49 72.3C249.787 71.6959 251.123 71.1813 252.49 70.76C256.012 69.532 259.674 68.7526 263.39 68.44C266.336 68.14 269.304 68.14 272.25 68.44C275.065 68.7413 277.838 69.3516 280.52 70.26C281.98 70.81 283.52 71.26 284.9 71.9C286.59 72.6749 288.236 73.5429 289.83 74.5C291.972 75.7872 293.973 77.2954 295.8 79C297.357 80.4018 298.829 81.8944 300.21 83.47C301.71 85.2505 303.068 87.1463 304.27 89.14C305.337 90.8669 306.25 92.6838 307 94.57C307.799 96.5404 308.467 98.5615 309 100.62C309.682 103.404 310.097 106.247 310.24 109.11C310.34 110.83 310.24 112.56 310.29 114.29C310.29 116.71 310.29 119.13 310.29 121.56C310.29 124.15 310.29 126.74 310.29 129.33C310.29 132.15 310.35 134.97 310.35 137.8C310.35 140.45 310.35 143.11 310.28 145.8V148.74C311.09 148.69 311.75 148.74 312.4 148.61C313.66 148.451 314.94 148.546 316.162 148.89C317.385 149.233 318.527 149.818 319.52 150.61C320.85 151.61 322.33 152.42 323.27 153.86C324.35 155.53 325.53 157.16 326.44 158.92C326.925 159.748 327.172 160.694 327.155 161.654C327.137 162.614 326.855 163.55 326.34 164.36C325.951 164.947 325.377 165.386 324.71 165.61C323.489 166.068 322.193 166.292 320.89 166.27L311.5 166.34C311.14 166.34 310.78 166.4 310.29 166.45C310.07 174.45 310.35 182.29 310.1 190.23C311.17 190.28 312.1 190.35 313.1 190.35C314.66 190.35 316.22 190.35 317.77 190.35H317.87C319.69 190.42 320.03 190.75 320.02 192.55C320.02 194.92 320.02 197.28 319.93 199.65C319.93 200.65 319.75 200.77 318.75 200.85C318.05 200.91 317.35 200.85 316.65 200.92C312.93 201.07 309.2 201.24 305.48 201.35C303.48 201.41 301.56 201.35 299.61 201.35C298.08 201.35 296.55 201.35 295.02 201.27C294.873 201.249 294.723 201.28 294.596 201.359C294.47 201.437 294.376 201.558 294.33 201.7C293.33 204.1 292.2 206.44 291.4 208.89C290.6 211.34 289.74 213.51 288.76 215.76C287.7 218.2 286.55 220.6 285.33 222.97C284.67 224.124 283.949 225.243 283.17 226.32C283.03 226.54 282.88 226.75 282.73 226.96C283.06 227.36 283.46 227.21 283.79 227.2C287.09 227.11 290.38 226.97 293.68 226.87C295.41 226.82 297.14 226.81 298.87 226.8C302.73 226.8 306.59 226.72 310.45 226.8C312.88 226.8 315.3 227.01 317.73 227.11C318.86 227.11 319.99 227.11 321.12 227.17C321.81 227.17 322.12 227.38 322.27 228.03C322.457 228.802 322.541 229.596 322.52 230.39C322.4 232.18 322.14 233.97 321.96 235.75C321.888 236.347 321.862 236.949 321.88 237.55C321.903 237.8 321.869 238.052 321.782 238.287C321.695 238.522 321.556 238.735 321.375 238.91C321.195 239.084 320.978 239.216 320.74 239.296C320.502 239.376 320.249 239.401 320 239.37C318.25 239.37 316.49 239.37 314.73 239.37H306.15H296.77C293.47 239.37 290.18 239.37 286.89 239.37C284.03 239.37 281.17 239.28 278.31 239.27C276.02 239.27 273.73 239.34 271.44 239.34C270.31 239.34 269.18 239.25 268.05 239.25C265.42 239.25 262.79 239.25 260.16 239.25C258.3 239.25 256.44 239.13 254.58 239.11C252.72 239.09 250.79 239.16 248.9 239.17C247.84 239.17 246.77 239.17 245.71 239.17C242.85 239.17 239.99 239.17 237.14 239.17C235.57 239.17 234.01 239.11 232.45 239.1C229.29 239.1 226.12 239.1 222.96 239.05C220.77 239.05 218.58 238.95 216.38 238.94C213.95 238.94 211.52 238.99 209.1 238.94C204.41 238.94 199.72 238.88 195.04 238.85L183.65 238.8C181.33 238.8 179 238.8 176.65 238.8C172.9 238.8 169.15 238.65 165.4 238.61C163.2 238.61 161 238.61 158.81 238.61C156.38 238.61 153.95 238.61 151.53 238.61C150.16 238.61 148.8 238.51 147.44 238.5C144.95 238.5 142.44 238.5 139.96 238.5H136.96H128.58H125.79C123.14 238.5 120.48 238.42 117.79 238.4C116.72 238.4 115.66 238.4 114.6 238.4C112.07 238.4 109.6 238.31 107.02 238.28C105.29 238.28 103.56 238.28 101.83 238.28C96.83 238.28 91.83 238.22 86.83 238.19C84.94 238.19 83.05 238.19 81.15 238.19C78.73 238.19 76.3 238.19 73.87 238.1C73.3036 238.085 72.7644 237.854 72.3628 237.454C71.9612 237.054 71.7277 236.516 71.71 235.95C71.71 233.723 71.74 231.493 71.8 229.26C71.8798 228.638 72.0412 228.03 72.28 227.45C72.44 226.97 72.84 226.86 73.28 226.85C75.57 226.85 77.86 226.78 80.15 226.75C81.95 226.75 83.74 226.75 85.54 226.75H91.46C91.5103 226.328 91.537 225.904 91.54 225.48C91.42 222.85 91.25 220.22 91.17 217.59C91.11 215.59 91.17 213.66 91.17 211.7C91.17 210.14 91.28 208.58 91.35 207.02C91.4555 204.013 92.2601 201.072 93.7 198.43C94.6539 196.745 95.9854 195.304 97.59 194.22C97.75 194.11 97.9 193.98 98.06 193.86C98.0971 193.799 98.1305 193.735 98.16 193.67C97.84 193.48 97.5 193.28 97.16 193.07C95.7847 192.315 94.6195 191.229 93.77 189.91C93.4967 189.421 93.2755 188.905 93.11 188.37C92.9187 187.654 92.4607 187.039 91.83 186.65L89.83 185.35C88.7486 184.743 87.8479 183.859 87.22 182.79C87.0067 182.49 86.8743 182.14 86.8358 181.774C86.7972 181.408 86.8538 181.038 87 180.7C87.0801 180.517 87.2058 180.357 87.3651 180.236C87.5244 180.116 87.712 180.038 87.91 180.01C88.6386 179.878 89.3901 180.021 90.02 180.41C91.7503 181.518 93.3157 182.865 94.67 184.41C95.8119 185.738 97.201 186.832 98.76 187.63C98.59 187.27 98.43 186.89 98.23 186.53C96.95 184.16 95.65 181.8 94.37 179.43C93.89 178.55 93.44 177.66 92.98 176.78C92.8972 176.573 92.761 176.392 92.5853 176.255C92.4096 176.118 92.2008 176.03 91.98 176C91.5078 175.892 91.0875 175.623 90.7904 175.241C90.4933 174.858 90.3377 174.384 90.35 173.9C90.4157 173.418 90.6551 172.976 91.0233 172.657C91.3915 172.339 91.8632 172.166 92.35 172.17C92.7196 172.135 93.0894 172.234 93.3922 172.449C93.6949 172.663 93.9106 172.98 94 173.34C94.0348 173.505 94.0348 173.675 94 173.84C93.61 175.05 94.35 175.95 94.86 176.84C95.86 178.68 96.86 180.49 97.86 182.33C99.12 184.64 100.35 186.96 101.57 189.33C101.97 190.09 102.31 190.88 102.69 191.69L104.95 191.05C104.646 190.526 104.395 189.973 104.2 189.4C103.976 188.599 103.855 187.772 103.84 186.94C103.842 183.965 103.19 181.025 101.93 178.33C101.081 176.593 100.511 174.734 100.24 172.82C100.172 172.15 100.219 171.474 100.38 170.82C100.409 170.636 100.481 170.462 100.591 170.313C100.701 170.163 100.846 170.042 101.012 169.959C101.179 169.877 101.363 169.836 101.549 169.839C101.734 169.843 101.917 169.891 102.08 169.98C102.456 170.117 102.8 170.33 103.091 170.605C103.381 170.88 103.613 171.212 103.77 171.58C104.11 172.34 104.35 173.14 104.62 173.92C104.793 174.545 105.17 175.094 105.69 175.48C105.69 175.06 105.69 174.81 105.69 174.56C105.6 173.34 105.49 172.11 105.4 170.88C105.2 168.06 105.02 165.24 104.81 162.42C104.81 161.77 104.57 161.63 103.91 161.66C100.56 161.83 97.2 162.05 93.85 162.18C91.66 162.26 89.47 162.23 87.28 162.18C85.28 162.18 83.35 162.18 81.4 162.04C79.637 162.035 77.8893 161.713 76.24 161.09C74.821 160.526 73.6291 159.508 72.8509 158.194C72.0728 156.88 71.7524 155.345 71.94 153.83C72.0453 152.55 72.4358 151.31 73.083 150.201C73.7302 149.092 74.6176 148.141 75.68 147.42C76.854 146.564 78.2346 146.036 79.68 145.89C80.7146 145.73 81.7729 145.927 82.68 146.45C84.38 147.45 86.02 148.62 87.68 149.69C88.54 150.24 89.43 150.77 90.32 151.28C90.8541 151.524 91.4402 151.633 92.0263 151.596C92.6124 151.559 93.1804 151.379 93.68 151.07C94.8382 150.561 95.9667 149.987 97.06 149.35C99.0557 148.131 101.289 147.354 103.61 147.07C106.498 146.905 109.351 147.762 111.67 149.49C113.371 150.503 114.718 152.015 115.53 153.82C115.961 154.9 116.24 156.034 116.36 157.19C116.449 158.031 116.207 158.873 115.687 159.539C115.166 160.205 114.407 160.643 113.57 160.76C111.97 161.03 110.34 161.16 108.73 161.34C108 161.43 107.28 161.5 106.51 161.58C106.459 161.773 106.428 161.971 106.42 162.17C106.693 166.17 106.973 170.17 107.26 174.17C107.32 174.99 107.46 175.82 107.6 176.64C107.683 177.132 107.939 177.578 108.32 177.9C108.754 178.241 109.1 178.681 109.326 179.185C109.553 179.688 109.653 180.239 109.62 180.79C109.57 181.617 109.59 182.446 109.68 183.27C109.808 183.784 109.989 184.283 110.22 184.76C110.55 184.12 110.78 183.7 111 183.26C111.591 181.881 112.455 180.636 113.54 179.6C113.88 179.281 114.256 179.002 114.66 178.77C114.917 178.629 115.14 178.433 115.312 178.196C115.485 177.959 115.604 177.688 115.66 177.4C116.49 174.73 117.34 172.06 118.2 169.4C118.71 167.81 119.2 166.24 119.77 164.67C119.88 164.35 119.95 164.03 120.05 163.67L119.59 163.17C119.217 162.78 119.013 162.259 119.02 161.72C119.002 161.494 119.029 161.267 119.1 161.051C119.17 160.836 119.283 160.636 119.43 160.464C119.578 160.292 119.758 160.151 119.961 160.049C120.163 159.947 120.384 159.886 120.61 159.87C121.075 159.781 121.556 159.86 121.968 160.093C122.38 160.325 122.696 160.696 122.86 161.14C123.061 161.549 123.093 162.021 122.951 162.454C122.809 162.888 122.504 163.248 122.1 163.46C121.607 163.747 121.247 164.218 121.1 164.77C120.1 167.88 119.1 170.98 118.1 174.08C117.82 174.95 117.51 175.82 117.3 176.71C117.955 175.925 118.454 175.022 118.77 174.05C119.259 172.666 119.971 171.372 120.88 170.22C121.382 169.645 122.012 169.196 122.72 168.91C122.98 168.792 123.265 168.737 123.55 168.748C123.836 168.759 124.115 168.837 124.365 168.975C124.616 169.112 124.83 169.307 124.993 169.542C125.155 169.777 125.26 170.047 125.3 170.33C125.442 171.019 125.441 171.729 125.296 172.417C125.152 173.106 124.867 173.757 124.46 174.33C123.838 175.191 123.17 176.019 122.46 176.81C121.379 178.046 120.72 179.594 120.58 181.23C120.43 182.23 120.21 183.23 119.97 184.15C119.887 184.53 119.691 184.876 119.407 185.142C119.123 185.408 118.765 185.582 118.38 185.64C117.937 185.714 117.528 185.926 117.213 186.246C116.897 186.565 116.689 186.976 116.62 187.42C116.19 189.196 115.464 190.886 114.47 192.42C115.03 192.8 115.47 193.15 116 193.42C117.296 194.299 118.421 195.407 119.32 196.69C120.414 198.077 121.272 199.634 121.86 201.3C122.465 203.029 122.802 204.84 122.86 206.67C122.86 208.93 122.77 211.19 122.75 213.46C122.75 214.52 122.85 215.58 122.83 216.65C122.83 217.94 122.74 219.24 122.69 220.54C122.62 222.4 122.56 224.25 122.5 226.11C122.507 226.285 122.527 226.458 122.56 226.63H131.96C131.876 226.518 131.779 226.417 131.67 226.33C130.2 225.347 128.966 224.049 128.06 222.53C126.549 220.127 125.593 217.418 125.26 214.6C124.87 212.34 124.58 210.06 124.33 207.79C124.1 205.79 123.9 203.68 123.82 201.62C123.76 200.27 123.94 198.91 123.98 197.55C124.05 195.36 123.98 193.16 124.15 190.97C124.29 188.38 124.46 185.79 124.77 183.21C124.98 181.47 125.53 179.77 125.77 178.03C126.12 176.065 126.595 174.125 127.19 172.22C127.649 170.166 128.453 168.204 129.57 166.42C131.02 164.105 132.735 161.968 134.68 160.05C137.593 157.251 141.136 155.193 145.01 154.05C147.78 153.23 150.61 152.62 153.42 151.92C154.33 151.7 155.23 151.46 156.15 151.31C157.95 151 159.76 150.75 161.57 150.46C163.18 150.2 164.78 149.85 166.4 149.67C168.28 149.46 170.18 149.39 172.07 149.28C173.44 149.2 174.8 149.11 176.16 149.08C179.317 148.953 182.478 148.997 185.63 149.21C187.85 149.41 190.09 149.52 192.28 149.9C195.552 150.292 198.764 151.074 201.85 152.23C204.15 153.181 206.371 154.314 208.49 155.62C210.71 157.039 212.66 158.84 214.25 160.94C216.486 163.965 218.274 167.295 219.56 170.83C220.18 172.41 220.89 173.95 221.5 175.53C221.91 176.61 222.22 177.73 222.58 178.84C222.669 179.076 222.772 179.307 222.89 179.53L223.26 179.59ZM223.72 120.59C224.24 120.28 224.6 120.05 224.97 119.84C225.929 119.237 227.007 118.848 228.13 118.7C228.558 118.642 228.993 118.681 229.403 118.814C229.813 118.948 230.188 119.172 230.5 119.47C231.273 120.213 231.841 121.143 232.15 122.17C232.387 123.064 232.891 123.865 233.595 124.465C234.299 125.065 235.17 125.437 236.09 125.53C237.447 125.66 238.813 125.66 240.17 125.53C243.582 125.217 246.998 126.082 249.85 127.98C250.336 128.261 250.789 128.597 251.2 128.98C252.578 130.345 253.527 132.083 253.93 133.98C254.092 134.593 254.052 135.242 253.814 135.83C253.576 136.418 253.153 136.913 252.61 137.24C251.613 137.852 250.493 138.235 249.33 138.36C247 138.65 244.64 138.82 242.33 138.99C240.87 139.1 239.41 139.09 237.95 139.19C235.29 139.37 232.64 139.6 229.95 139.78C228.29 139.88 226.62 139.91 224.95 139.99C224.24 139.99 224.14 140.11 224.14 140.82C224.14 141.99 224.14 143.15 224.19 144.31C224.19 145.31 224.19 146.31 224.24 147.31C224.3 149.17 224.4 151.02 224.43 152.88C224.43 155.11 224.43 157.34 224.49 159.56C224.56 162.56 224.71 165.61 224.79 168.63C224.89 172.92 224.96 177.21 225.04 181.5C225.13 182.688 225.13 183.882 225.04 185.07C224.925 186.187 225.052 187.316 225.41 188.38C225.75 189.59 226 190.84 226.28 192.07C226.44 192.77 226.59 193.47 226.74 194.18H226.96C227.204 193.587 227.411 192.979 227.58 192.36C228.11 189.879 229.01 187.493 230.25 185.28C230.89 184.12 231.37 182.88 231.96 181.69C232.497 180.353 233.433 179.215 234.64 178.43C236.014 177.67 237.535 177.213 239.1 177.09C240.52 176.95 241.96 176.92 243.36 176.66C245.567 176.362 247.793 176.219 250.02 176.23C252.71 176.12 255.41 176.13 258.1 176.12C261.4 176.12 264.69 176.12 267.98 176.12C270.93 176.12 273.89 176.2 276.84 176.28C279.07 176.28 281.3 176.43 283.52 176.51C283.79 176.51 284.06 176.51 284.32 176.51C285.98 176.61 287.65 176.65 289.32 176.82C290.99 176.99 292.55 177.28 294.16 177.5C295.623 177.634 297.05 178.034 298.37 178.68C299.445 179.233 300.284 180.156 300.73 181.28C301.188 182.546 301.212 183.928 300.8 185.21C300.47 186.43 300.02 187.61 299.62 188.81L299.19 190.19H302.14C302.14 189.07 302.14 188.05 302.14 187.02C302.14 183.27 302.14 179.51 302.14 175.75C302.14 173.12 302.14 170.5 302.14 167.87C302.14 167.45 302.06 167.03 302.02 166.62C298.88 166.62 295.85 166.53 292.84 166.62C290.618 166.725 288.392 166.587 286.2 166.21C284.672 165.968 283.289 165.166 282.32 163.96C281.925 163.461 281.65 162.877 281.514 162.255C281.379 161.633 281.388 160.988 281.54 160.37C281.861 158.79 282.698 157.362 283.92 156.31C284.588 155.656 285.41 155.182 286.311 154.931C287.211 154.681 288.161 154.664 289.07 154.88C290.49 155.21 291.93 155.5 293.36 155.77C294.787 156.006 296.252 155.756 297.52 155.06C298.74 154.46 299.92 153.76 301.13 153.14C301.47 152.981 301.75 152.718 301.93 152.389C302.11 152.06 302.18 151.682 302.13 151.31C302.07 148.12 302.13 144.92 302.08 141.73C302.03 138.54 302.28 135.55 302.17 132.45C302.09 129.93 302.24 127.45 302.25 124.88C302.25 121.22 302.25 117.56 302.25 113.88C302.354 111.32 302.257 108.755 301.96 106.21C301.65 104.31 301.44 102.38 300.96 100.52C300.43 98.2865 299.676 96.1122 298.71 94.03C297.92 92.45 297.16 90.86 296.25 89.35C295.457 88.083 294.586 86.8672 293.64 85.71C292.64 84.46 291.64 83.26 290.51 82.09C288.848 80.397 286.999 78.8974 285 77.62C283.692 76.6678 282.33 75.793 280.92 75C278.261 73.5494 275.447 72.4054 272.53 71.59C270.248 70.9132 267.902 70.4742 265.53 70.28C262.134 70.1653 258.741 70.5941 255.48 71.55C251.806 72.5655 248.282 74.0617 245 76C242.689 77.3202 240.506 78.8535 238.48 80.58C235.52 83.1632 232.902 86.1138 230.69 89.36C228.602 92.4477 226.922 95.792 225.69 99.31C224.846 101.659 224.23 104.083 223.85 106.55C223.77 107.08 223.72 107.55 223.65 108.13C223.463 110.749 223.437 113.377 223.57 116C223.55 117.5 223.66 119 223.72 120.61V120.59ZM215.6 224.72C216.11 223.07 216.6 221.47 217.1 219.91C217.72 218.15 218.4 216.42 219.1 214.7C220.27 211.88 221.52 209.09 222.67 206.25C223.47 204.25 224.17 202.25 224.87 200.25C225.204 199.488 225.414 198.678 225.49 197.85C225.421 196.556 225.257 195.27 225 194C224.643 191.836 224.146 189.699 223.51 187.6C222.7 184.86 222.1 182.05 221.21 179.34C220.026 175.668 218.62 172.071 217 168.57C215.998 166.255 214.747 164.055 213.27 162.01C211.948 160.296 210.378 158.789 208.61 157.54C207.259 156.628 205.846 155.813 204.38 155.1C203.058 154.335 201.661 153.708 200.21 153.23C197.508 152.473 194.768 151.862 192 151.4C188.362 150.829 184.682 150.575 181 150.64C176.141 150.613 171.284 150.847 166.45 151.34C162.75 151.79 159.07 152.34 155.45 153.15C154.08 153.45 152.72 153.77 151.36 154.06C147.647 154.693 144.061 155.922 140.74 157.7C138.459 158.953 136.413 160.59 134.69 162.54C133.559 163.848 132.514 165.228 131.56 166.67C130.746 167.924 130.075 169.266 129.56 170.67C128.678 173.005 128.009 175.415 127.56 177.87C127.22 179.87 126.78 181.87 126.56 183.97C126.34 186.07 126.17 188.2 126.03 190.32C125.91 192.01 125.87 193.71 125.81 195.41C125.75 196.87 125.68 198.33 125.65 199.79C125.575 201.052 125.575 202.318 125.65 203.58C125.89 206.19 126.2 208.8 126.55 211.41C126.81 213.25 127.1 215.1 127.5 216.91C128.081 219.175 129.142 221.29 130.61 223.11C130.859 223.507 131.154 223.873 131.49 224.2C132.666 225.239 134.065 225.992 135.58 226.4C137.484 226.895 139.443 227.144 141.41 227.14C143.08 227.14 144.74 227.03 146.41 226.94C147.81 226.86 149.21 226.8 150.59 226.62C153 226.32 155.4 225.95 157.8 225.56C159.3 225.32 160.8 225.07 162.29 224.7C164.91 224.05 167.49 223.28 170.1 222.61C172.22 222.06 174.37 221.61 176.5 221.07C176.825 220.968 177.142 220.845 177.45 220.7C177.461 220.597 177.461 220.493 177.45 220.39C177.41 220.263 177.36 220.139 177.3 220.02C176.308 217.977 175.695 215.772 175.49 213.51C175.067 210.307 174.993 207.068 175.27 203.85C175.251 203.707 175.207 203.568 175.14 203.44C174.82 203.44 174.52 203.49 174.23 203.53C172.843 203.67 171.453 203.82 170.06 203.98C167.37 204.27 164.69 204.5 162.06 204.86C158.79 205.3 155.55 205.86 152.3 206.36C151.12 206.55 149.96 206.84 148.79 207.07C148.498 207.136 148.199 207.163 147.9 207.15C147.74 207.15 147.45 206.94 147.47 206.86C147.509 206.653 147.618 206.465 147.78 206.33C147.95 206.22 148.141 206.146 148.34 206.11L149.67 205.66C149.722 205.461 149.752 205.256 149.76 205.05C149.7 203.65 149.63 202.26 149.53 200.86C149.37 198.64 149.12 196.42 149.02 194.19C148.9 191.53 148.91 188.87 148.86 186.19C148.814 185.962 148.814 185.728 148.86 185.5C148.95 185.29 149.17 185.02 149.36 184.99C149.486 184.991 149.61 185.022 149.722 185.081C149.833 185.14 149.929 185.226 150 185.33C150.151 185.624 150.233 185.949 150.24 186.28C150.24 187.47 150.24 188.66 150.32 189.85C150.4 191.97 150.5 194.1 150.61 196.22C150.73 198.713 150.857 201.2 150.99 203.68C150.99 204.2 150.99 204.68 151.08 205.29C153.18 204.97 155.18 204.65 157.19 204.36C159.92 203.95 162.64 203.51 165.39 203.18C169.51 202.69 173.65 202.23 177.79 201.85C180.51 201.6 183.25 201.57 185.96 201.3C188.91 201.052 191.87 200.958 194.83 201.02C196.26 201.02 197.68 201.26 199.11 201.37C200.67 201.453 202.203 201.808 203.64 202.42C203.96 202.57 204.3 202.66 204.75 202.83C204.68 202.33 204.64 201.98 204.58 201.62C204.49 201.06 204.38 200.51 204.29 199.95C203.95 197.88 203.64 195.81 203.29 193.74C202.85 191.09 202.37 188.45 201.91 185.81C201.843 185.416 201.799 185.019 201.78 184.62C201.78 184.27 201.78 183.91 202.18 183.8C202.58 183.69 202.86 184.02 202.99 184.37C203.127 184.778 203.234 185.196 203.31 185.62C203.31 185.85 203.37 186.08 203.41 186.31C204.163 190.843 204.917 195.373 205.67 199.9C205.86 201.05 206.04 202.2 206.13 203.36C206.149 203.754 206.304 204.129 206.57 204.42C207.239 205.111 207.845 205.861 208.38 206.66C209.38 208.28 210.23 209.97 211.09 211.66C211.67 212.78 212.09 213.97 212.7 215.09C213.741 217.065 214.467 219.191 214.85 221.39C215 222.247 214.9 223.129 214.56 223.93C214.47 224.16 214.42 224.41 214.32 224.72H215.6ZM320.74 228.58C319.74 228.53 318.8 228.45 317.87 228.43C315.58 228.37 313.28 228.33 310.99 228.29C308.7 228.25 306.66 228.19 304.5 228.19C302.61 228.19 300.71 228.29 298.82 228.32C296.09 228.37 293.36 228.32 290.63 228.45C287.803 228.555 284.973 228.515 282.15 228.33C281.691 228.303 281.232 228.396 280.82 228.6C279.741 229.138 278.555 229.425 277.35 229.44C275.56 229.44 273.76 229.49 271.97 229.54C269.68 229.61 267.38 229.63 265.09 229.82C261.37 230.12 257.64 229.97 253.92 229.96C252.25 229.96 250.59 229.83 248.92 229.84C245.23 229.84 241.54 229.93 237.84 229.98C235.78 229.98 233.71 230.06 231.65 230.08C229.35 230.08 227.05 230.26 224.77 230.08C221.58 229.83 218.38 229.89 215.19 229.81C212.7 229.75 210.19 229.81 207.71 229.74C204.81 229.74 201.92 229.63 199.03 229.57C197.56 229.57 196.1 229.57 194.64 229.5C192.51 229.44 190.39 229.33 188.26 229.28C186.93 229.28 185.6 229.28 184.26 229.28C183.564 229.295 182.871 229.19 182.21 228.97C181.371 228.648 180.479 228.485 179.58 228.49C175.58 228.4 171.67 228.36 167.71 228.22C164.09 228.09 160.47 227.86 156.85 227.68C156.089 227.615 155.324 227.595 154.56 227.62C153.44 227.7 152.32 227.91 151.19 228.01C148.61 228.24 146.03 228.53 143.44 228.61C141.437 228.632 139.434 228.548 137.44 228.36C135.864 228.128 134.273 228.001 132.68 227.98C130.05 228.12 127.43 228.21 124.8 228.26C121.14 228.34 117.48 228.41 113.8 228.41C110.58 228.41 107.35 228.33 104.13 228.27C102.3 228.27 100.47 228.17 98.64 228.14C97.05 228.14 95.45 228.14 93.86 228.14C90.67 228.14 87.47 228.02 84.28 228.02C81.49 228.02 78.7 228.13 75.91 228.2C75.26 228.2 74.6 228.2 73.91 228.27C73.76 230.97 73.61 233.57 73.46 236.27H75C77.29 236.27 79.58 236.37 81.87 236.38C83.33 236.38 84.79 236.38 86.25 236.38C88.71 236.38 91.17 236.45 93.63 236.46C96.93 236.46 100.22 236.46 103.52 236.46H110.29L119.97 236.52L135.24 236.64C137.74 236.64 140.24 236.64 142.73 236.64C144.62 236.64 146.52 236.64 148.41 236.64C149.41 236.64 150.34 236.64 151.3 236.64C153.52 236.64 155.74 236.77 157.97 236.8C159.4 236.8 160.82 236.74 162.25 236.75C165.35 236.75 168.44 236.8 171.53 236.83L180.81 236.89C183.37 236.89 185.93 236.96 188.5 236.97C191.62 236.97 194.75 236.97 197.88 236.97C200.64 236.97 203.41 237.08 206.17 237.1C210.33 237.1 214.48 237.1 218.64 237.15C222.03 237.15 225.43 237.15 228.82 237.22H238.11C240.5 237.22 242.9 237.28 245.29 237.29C247.52 237.29 249.75 237.24 251.97 237.24C253.56 237.24 255.15 237.33 256.74 237.34C260.67 237.34 264.59 237.34 268.52 237.34C271.75 237.34 274.98 237.44 278.21 237.46C281.44 237.48 284.92 237.46 288.28 237.46C289.54 237.46 290.81 237.6 292.07 237.6C294.9 237.6 297.73 237.53 300.55 237.55C304.74 237.55 308.93 237.7 313.12 237.76C315.12 237.76 317.04 237.76 319 237.76C319.42 237.76 319.84 237.68 320.26 237.64C320.26 237.41 320.33 237.29 320.34 237.16C320.48 235.64 320.62 234.11 320.75 232.59C320.974 231.262 320.971 229.906 320.74 228.58ZM200.86 224.09C201.313 224.194 201.783 224.207 202.241 224.128C202.7 224.049 203.138 223.879 203.53 223.629C203.921 223.378 204.26 223.052 204.524 222.669C204.789 222.287 204.974 221.855 205.07 221.4C205.293 220.079 205.39 218.739 205.36 217.4C205.332 215.836 205.096 214.282 204.66 212.78C204.626 212.694 204.61 212.602 204.611 212.51C204.613 212.417 204.633 212.326 204.67 212.242C204.708 212.157 204.761 212.081 204.828 212.017C204.895 211.953 204.974 211.903 205.06 211.87C205.22 211.811 205.397 211.812 205.557 211.873C205.716 211.933 205.849 212.049 205.93 212.2C206.03 212.33 206.12 212.47 206.21 212.61C206.99 213.96 207.84 215.28 208.55 216.67C209.5 218.56 210.35 220.52 211.24 222.45C211.348 222.801 211.544 223.119 211.808 223.374C212.072 223.629 212.396 223.813 212.75 223.91C212.964 223.691 213.128 223.429 213.23 223.14C213.332 222.852 213.369 222.545 213.34 222.24C213.285 221.486 213.172 220.737 213 220C212.382 217.857 211.548 215.783 210.51 213.81C209.58 211.89 208.51 210.03 207.57 208.13C206.98 206.931 206.133 205.876 205.09 205.04C203.254 203.64 201.044 202.816 198.74 202.67C197.84 202.6 196.95 202.51 196.05 202.46C194.79 202.39 193.52 202.27 192.26 202.32C189.34 202.44 186.41 202.63 183.49 202.81C181.49 202.94 179.49 203.12 177.42 203.24C176.88 203.24 176.63 203.48 176.61 204.02C176.61 204.71 176.55 205.41 176.56 206.1C176.457 209.499 176.793 212.897 177.56 216.21C177.869 217.626 178.416 218.978 179.18 220.21C179.378 220.202 179.575 220.179 179.77 220.14C182.22 219.51 184.66 218.85 187.1 218.22C188.62 217.83 190.1 217.53 191.64 217.07C192.41 216.84 192.78 216.74 193.09 217.84C193.234 218.523 193.278 219.224 193.22 219.92C193.22 221.39 192.66 221.92 191.22 222.1C191.06 222.1 190.89 222.1 190.72 222.1C189.67 222.17 189.36 222.5 189.32 223.65C190.85 224.096 192.482 224.043 193.98 223.5C194.454 223.385 194.877 223.117 195.182 222.737C195.488 222.358 195.659 221.887 195.67 221.4C195.725 220.471 195.725 219.539 195.67 218.61C195.67 217.95 195.52 217.29 195.49 216.61C195.496 216.518 195.526 216.429 195.576 216.351C195.627 216.274 195.697 216.212 195.78 216.17C195.874 216.161 195.97 216.173 196.059 216.204C196.149 216.235 196.231 216.285 196.3 216.35C196.438 216.492 196.525 216.674 196.55 216.87C196.7 217.87 196.88 218.87 196.94 219.87C197.042 220.634 196.985 221.41 196.772 222.15C196.558 222.89 196.193 223.578 195.7 224.17C196.366 224.12 197.034 224.12 197.7 224.17C198.95 224.37 199.5 223.59 199.99 222.68C200.094 222.472 200.178 222.254 200.24 222.03C200.631 220.477 200.699 218.86 200.44 217.28C200.35 216.45 200.16 215.64 200.07 214.81C200.059 214.688 200.075 214.564 200.116 214.449C200.158 214.333 200.224 214.228 200.31 214.14C200.377 214.104 200.45 214.083 200.526 214.078C200.601 214.074 200.677 214.085 200.747 214.113C200.818 214.141 200.881 214.183 200.934 214.238C200.986 214.293 201.026 214.358 201.05 214.43C201.2 214.723 201.318 215.031 201.4 215.35C201.48 215.67 201.5 216.01 201.55 216.35C202.103 218.692 201.967 221.143 201.16 223.41C201.08 223.58 201 223.79 200.86 224.09ZM314.49 164.77C314.89 164.77 315.29 164.77 315.69 164.77C318.217 164.839 320.745 164.702 323.25 164.36C323.566 164.341 323.876 164.259 324.16 164.12C324.445 163.981 324.699 163.787 324.908 163.549C325.118 163.311 325.277 163.034 325.379 162.734C325.481 162.433 325.522 162.116 325.5 161.8C325.501 160.746 325.221 159.71 324.69 158.8C324.2 157.93 323.6 157.13 323.07 156.29C321.962 154.544 320.5 153.048 318.78 151.9C317.286 150.822 315.518 150.188 313.68 150.07C311.574 150.007 309.484 150.456 307.59 151.38C306.06 152.07 304.65 153.04 303.18 153.87C301.53 154.8 299.9 155.76 298.18 156.6C296.202 157.523 293.968 157.738 291.85 157.21C290.85 157 289.85 156.75 288.85 156.53C285.85 155.88 283.5 158.06 283.07 160.93C282.957 161.768 283.169 162.618 283.661 163.305C284.154 163.993 284.89 164.467 285.72 164.63C287.683 165.103 289.703 165.299 291.72 165.21C293.42 165.21 295.11 165.08 296.81 165.06C299.6 165.06 302.39 165.06 305.18 165.06C308.31 165 311.4 164.85 314.49 164.77ZM106.25 160.08C108.69 159.86 110.99 159.73 113.25 159.42C114.25 159.29 114.91 158.82 114.84 157.36C114.787 155.546 114.047 153.819 112.77 152.53C111.507 151.342 110.074 150.348 108.52 149.58C107.13 148.853 105.564 148.53 104 148.65C102.169 148.809 100.394 149.366 98.8 150.28C97.27 151.07 95.8 151.9 94.19 152.63C93.2853 153.075 92.2784 153.27 91.273 153.197C90.2676 153.123 89.3 152.782 88.47 152.21C86.67 151.08 84.94 149.83 83.16 148.66C81.63 147.66 80.07 147.08 78.16 147.91C75.94 148.91 74.22 150.28 73.71 152.76C73.5549 153.675 73.4946 154.603 73.53 155.53C73.5876 156.538 73.9983 157.494 74.69 158.23C75.5764 159.244 76.8037 159.899 78.14 160.07C79.645 160.328 81.1646 160.492 82.69 160.56C86.51 160.75 90.33 160.86 94.15 160.69C96.91 160.57 99.67 160.5 102.43 160.37C103.11 160.37 103.8 160.2 104.6 160.09C104.6 159.43 104.6 158.84 104.51 158.25C104.447 157.859 104.404 157.465 104.38 157.07C104.418 156.807 104.373 156.538 104.251 156.301C104.129 156.065 103.936 155.872 103.7 155.75C103.412 155.575 103.179 155.324 103.027 155.023C102.875 154.723 102.81 154.385 102.84 154.05C102.846 153.595 103.007 153.157 103.296 152.806C103.585 152.455 103.985 152.213 104.43 152.12C104.91 152.058 105.398 152.137 105.834 152.347C106.271 152.556 106.637 152.887 106.89 153.3C107.063 153.716 107.094 154.178 106.979 154.613C106.863 155.049 106.607 155.435 106.25 155.71C105.98 155.94 105.75 156.15 105.8 156.54C106 157.65 106.1 158.76 106.25 160.08ZM224.1 138.52L226.31 138.42C228.63 138.31 230.96 138.23 233.31 138.08C236.31 137.89 239.31 137.64 242.36 137.42C244.36 137.26 246.47 137.16 248.52 136.96C249.443 136.858 250.352 136.653 251.23 136.35C251.496 136.296 251.747 136.181 251.961 136.014C252.175 135.846 252.346 135.631 252.462 135.385C252.578 135.139 252.634 134.869 252.627 134.597C252.62 134.326 252.549 134.059 252.42 133.82C252.178 133.095 251.859 132.398 251.47 131.74C250.895 130.569 249.954 129.618 248.79 129.03C247.91 128.64 247.05 128.21 246.17 127.81C244.694 127.191 243.099 126.908 241.5 126.98C239.71 126.98 237.91 127.19 236.13 127.08C235.176 127.049 234.248 126.761 233.444 126.247C232.64 125.734 231.989 125.012 231.56 124.16C231.18 123.46 230.93 122.7 230.56 121.98C229.79 120.42 229.04 119.89 227.31 120.31C226.133 120.68 225.069 121.344 224.22 122.24C224.072 122.37 223.956 122.532 223.881 122.714C223.807 122.897 223.775 123.094 223.79 123.29C223.86 127.08 223.91 130.87 223.99 134.65C224 135.88 224.06 137.1 224.1 138.52ZM318.59 191.89C316.78 191.89 315.09 191.76 313.4 191.76C311.71 191.76 309.81 191.89 308.02 191.89C305.16 191.89 302.3 191.89 299.44 191.76C299.143 191.732 298.846 191.809 298.599 191.977C298.353 192.145 298.173 192.393 298.09 192.68C297.56 193.96 296.98 195.23 296.46 196.52C296 197.65 295.6 198.8 295.12 200.07L318.59 199.68V191.89ZM191.59 218.15C181.59 221.26 171.59 223.66 161.51 226.33C162.38 226.62 178.71 227.19 179.51 226.98C179.29 226.53 179.05 226.1 178.87 225.65C178.46 224.58 178.87 224.08 179.99 224.11L185.77 224.21C186.42 224.21 187.07 224.21 187.77 224.21C187.77 223.92 187.77 223.76 187.72 223.6C187.652 223.117 187.747 222.624 187.989 222.201C188.232 221.777 188.609 221.446 189.06 221.26C189.51 221.05 189.97 220.85 190.43 220.68C190.89 220.51 191.18 220.46 191.6 220.33L191.59 218.15ZM106 211.79C107.036 211.812 108.06 211.552 108.961 211.04C109.862 210.528 110.608 209.782 111.12 208.88C111.618 208.1 111.891 207.198 111.907 206.273C111.922 205.348 111.681 204.436 111.21 203.64C110.793 202.911 110.186 202.309 109.453 201.898C108.72 201.488 107.89 201.285 107.05 201.31C105.736 201.246 104.444 201.659 103.411 202.473C102.378 203.288 101.675 204.448 101.43 205.74C100.49 209.18 103.41 212 106 211.79ZM111 191.17C111.54 191.35 112 191.48 112.47 191.68C112.564 191.733 112.668 191.766 112.775 191.775C112.882 191.785 112.99 191.771 113.092 191.735C113.194 191.699 113.286 191.641 113.363 191.566C113.441 191.491 113.501 191.4 113.54 191.3C114.146 190.303 114.617 189.231 114.94 188.11C115.167 187.348 115.455 186.606 115.8 185.89C115.963 185.503 116.223 185.164 116.557 184.908C116.89 184.652 117.284 184.487 117.7 184.43C117.967 184.41 118.219 184.301 118.415 184.119C118.611 183.937 118.74 183.694 118.78 183.43C119.023 182.464 119.217 181.486 119.36 180.5C119.515 178.899 120.189 177.392 121.28 176.21C122.072 175.317 122.794 174.364 123.44 173.36C123.981 172.627 124.214 171.712 124.09 170.81C123.99 170.15 123.62 169.92 123.09 170.23C122.736 170.416 122.429 170.679 122.19 171C121.082 172.461 120.206 174.083 119.59 175.81C119.126 177.281 118.097 178.507 116.73 179.22C115.349 179.827 114.163 180.803 113.3 182.04C112.51 183.31 111.82 184.64 111.16 185.98C111.007 186.382 110.969 186.818 111.05 187.24C111.275 188.318 111.275 189.432 111.05 190.51C111.009 190.727 110.992 190.949 111 191.17ZM101.31 226.49C102.66 226.57 112.71 227.05 113.31 226.67V219.89C111.44 220.786 109.383 221.221 107.31 221.16C105.242 221.125 103.194 220.747 101.25 220.04L101.31 226.49ZM264 203.12H263.92C263.935 202.924 263.935 202.726 263.92 202.53C263.9 202.094 263.755 201.673 263.501 201.319C263.247 200.964 262.896 200.69 262.49 200.53C262.086 200.361 261.641 200.32 261.213 200.413C260.785 200.506 260.397 200.728 260.1 201.05C259.673 201.467 259.297 201.934 258.98 202.44C258.545 203.07 258.17 203.74 257.86 204.44C257.384 205.497 256.993 206.591 256.69 207.71C256.6 207.974 256.574 208.255 256.613 208.53C256.653 208.806 256.756 209.068 256.916 209.296C257.076 209.524 257.287 209.711 257.533 209.842C257.779 209.973 258.052 210.044 258.33 210.05C259.012 210.142 259.706 210.041 260.334 209.758C260.961 209.475 261.497 209.022 261.88 208.45C262.745 207.244 263.379 205.888 263.75 204.45C263.88 204 263.93 203.54 264 203.12ZM106.72 190.8C106.758 190.552 106.782 190.301 106.79 190.05C106.74 189.15 106.66 188.26 106.61 187.36C106.47 184.64 106.31 181.92 106.2 179.2C106.228 178.703 106.132 178.208 105.921 177.757C105.71 177.307 105.39 176.916 104.99 176.62C104.213 175.982 103.639 175.13 103.34 174.17C103.027 173.37 102.693 172.58 102.34 171.8C102.24 171.6 102 171.47 101.66 171.16C101.588 171.748 101.588 172.342 101.66 172.93C102.09 174.46 102.6 175.93 103.11 177.48C103.5 178.62 103.98 179.72 104.33 180.86C104.844 182.411 105.1 184.036 105.09 185.67C105.063 186.53 105.117 187.39 105.25 188.24C105.263 188.755 105.404 189.259 105.661 189.706C105.917 190.153 106.281 190.529 106.72 190.8ZM101.34 192.09C100.71 190.739 99.6986 189.602 98.43 188.82C96.8717 187.92 95.445 186.81 94.19 185.52C93.07 184.35 91.93 183.18 90.73 182.08C90.2083 181.665 89.6289 181.328 89.01 181.08C88.7322 181.011 88.4457 180.984 88.16 181C88.2231 181.261 88.3101 181.515 88.42 181.76C88.8774 182.539 89.5285 183.187 90.31 183.64C91.19 184.16 92.04 184.75 92.9 185.31C93.6294 185.794 94.1587 186.526 94.39 187.37C94.5746 188.221 94.9937 189.004 95.6 189.63C96.7082 190.736 98.0187 191.619 99.46 192.23C99.7592 192.369 100.089 192.43 100.418 192.405C100.747 192.381 101.065 192.272 101.34 192.09ZM206.85 217L206.61 217.09C206.61 217.62 206.61 218.15 206.61 218.68C206.61 220.62 206.61 222.56 205.12 224.09C205.12 224.09 205.12 224.16 205.12 224.32C206.99 224.516 208.87 224.609 210.75 224.6L206.85 217ZM109.57 191C110.05 189.342 109.915 187.566 109.19 186C108.436 184.477 108.144 182.767 108.35 181.08C108.43 180.842 108.428 180.583 108.345 180.346C108.262 180.109 108.102 179.906 107.89 179.77C107.89 180.56 107.95 181.33 107.98 182.1C108.093 184.72 108.193 187.34 108.28 189.96C108.31 190.9 108.36 191 109.57 190.9V191Z" fill="black"/>
<g clip-path="url(#paint0_diamond_119_44_clip_path)" data-figma-skip-parse="true"><g transform="matrix(0.087 0.0425 -0.0634257 0.129836 142.5 176.5)"><rect x="0" y="0" width="2012.43" height="1243.5" fill="url(#paint0_diamond_119_44)" opacity="1" shape-rendering="crispEdges"/><rect x="0" y="0" width="2012.43" height="1243.5" transform="scale(1 -1)" fill="url(#paint0_diamond_119_44)" opacity="1" shape-rendering="crispEdges"/><rect x="0" y="0" width="2012.43" height="1243.5" transform="scale(-1 1)" fill="url(#paint0_diamond_119_44)" opacity="1" shape-rendering="crispEdges"/><rect x="0" y="0" width="2012.43" height="1243.5" transform="scale(-1)" fill="url(#paint0_diamond_119_44)" opacity="1" shape-rendering="crispEdges"/></g></g><path d="M215.6 224.72C216.11 223.07 216.6 221.47 217.1 219.91C217.72 218.15 218.4 216.42 219.1 214.7C220.27 211.88 221.52 209.09 222.67 206.25C223.47 204.25 224.17 202.25 224.87 200.25C225.204 199.488 225.414 198.678 225.49 197.85C225.421 196.556 225.257 195.27 225 194C224.643 191.836 224.146 189.699 223.51 187.6C222.7 184.86 222.1 182.05 221.21 179.34C220.026 175.668 218.62 172.071 217 168.57C215.998 166.255 214.747 164.055 213.27 162.01C211.948 160.296 210.378 158.789 208.61 157.54C207.259 156.628 205.846 155.813 204.38 155.1C203.058 154.335 201.661 153.708 200.21 153.23C197.508 152.473 194.768 151.862 192 151.4C188.362 150.829 184.682 150.575 181 150.64C176.141 150.613 171.284 150.847 166.45 151.34C162.75 151.79 159.07 152.34 155.45 153.15C154.08 153.45 152.72 153.77 151.36 154.06C147.647 154.693 144.061 155.922 140.74 157.7C138.459 158.953 136.413 160.59 134.69 162.54C133.559 163.848 132.514 165.228 131.56 166.67C130.746 167.924 130.075 169.266 129.56 170.67C128.678 173.005 128.009 175.415 127.56 177.87C127.22 179.87 126.78 181.87 126.56 183.97C126.34 186.07 126.17 188.2 126.03 190.32C125.91 192.01 125.87 193.71 125.81 195.41C125.75 196.87 125.68 198.33 125.65 199.79C125.575 201.052 125.575 202.318 125.65 203.58C125.89 206.19 126.2 208.8 126.55 211.41C126.81 213.25 127.1 215.1 127.5 216.91C128.081 219.175 129.142 221.29 130.61 223.11C130.859 223.507 131.154 223.873 131.49 224.2C132.666 225.239 134.065 225.992 135.58 226.4C137.484 226.895 139.443 227.144 141.41 227.14C143.08 227.14 144.74 227.03 146.41 226.94C147.81 226.86 149.21 226.8 150.59 226.62C153 226.32 155.4 225.95 157.8 225.56C159.3 225.32 160.8 225.07 162.29 224.7C164.91 224.05 167.49 223.28 170.1 222.61C172.22 222.06 174.37 221.61 176.5 221.07C176.825 220.968 177.142 220.845 177.45 220.7C177.461 220.597 177.461 220.493 177.45 220.39C177.41 220.263 177.36 220.139 177.3 220.02C176.308 217.977 175.695 215.772 175.49 213.51C175.067 210.307 174.993 207.068 175.27 203.85C175.251 203.707 175.207 203.568 175.14 203.44C174.82 203.44 174.52 203.49 174.23 203.53C172.843 203.67 171.453 203.82 170.06 203.98C167.37 204.27 164.69 204.5 162.06 204.86C158.79 205.3 155.55 205.86 152.3 206.36C151.12 206.55 149.96 206.84 148.79 207.07C148.498 207.136 148.199 207.163 147.9 207.15C147.74 207.15 147.45 206.94 147.47 206.86C147.509 206.653 147.618 206.465 147.78 206.33C147.95 206.22 148.141 206.146 148.34 206.11L149.67 205.66C149.722 205.461 149.752 205.256 149.76 205.05C149.7 203.65 149.63 202.26 149.53 200.86C149.37 198.64 149.12 196.42 149.02 194.19C148.9 191.53 148.91 188.87 148.86 186.19C148.814 185.962 148.814 185.728 148.86 185.5C148.95 185.29 149.17 185.02 149.36 184.99C149.486 184.991 149.61 185.022 149.722 185.081C149.833 185.14 149.929 185.226 150 185.33C150.151 185.624 150.233 185.949 150.24 186.28C150.24 187.47 150.24 188.66 150.32 189.85C150.4 191.97 150.5 194.1 150.61 196.22C150.73 198.713 150.857 201.2 150.99 203.68C150.99 204.2 150.99 204.68 151.08 205.29C153.18 204.97 155.18 204.65 157.19 204.36C159.92 203.95 162.64 203.51 165.39 203.18C169.51 202.69 173.65 202.23 177.79 201.85C180.51 201.6 183.25 201.57 185.96 201.3C188.91 201.052 191.87 200.958 194.83 201.02C196.26 201.02 197.68 201.26 199.11 201.37C200.67 201.453 202.203 201.808 203.64 202.42C203.96 202.57 204.3 202.66 204.75 202.83C204.68 202.33 204.64 201.98 204.58 201.62C204.49 201.06 204.38 200.51 204.29 199.95C203.95 197.88 203.64 195.81 203.29 193.74C202.85 191.09 202.37 188.45 201.91 185.81C201.843 185.416 201.799 185.019 201.78 184.62C201.78 184.27 201.78 183.91 202.18 183.8C202.58 183.69 202.86 184.02 202.99 184.37C203.127 184.778 203.234 185.196 203.31 185.62C203.31 185.85 203.37 186.08 203.41 186.31C204.163 190.843 204.917 195.373 205.67 199.9C205.86 201.05 206.04 202.2 206.13 203.36C206.149 203.754 206.304 204.129 206.57 204.42C207.239 205.111 207.845 205.861 208.38 206.66C209.38 208.28 210.23 209.97 211.09 211.66C211.67 212.78 212.09 213.97 212.7 215.09C213.741 217.065 214.467 219.191 214.85 221.39C215 222.247 214.9 223.129 214.56 223.93C214.47 224.16 214.42 224.41 214.32 224.72H215.6Z" data-figma-gradient-fill="{&#34;type&#34;:&#34;GRADIENT_DIAMOND&#34;,&#34;stops&#34;:[{&#34;color&#34;:{&#34;r&#34;:0.82094663381576538,&#34;g&#34;:0.96248370409011841,&#34;b&#34;:0.87520253658294678,&#34;a&#34;:1.0},&#34;position&#34;:0.0},{&#34;color&#34;:{&#34;r&#34;:0.69679605960845947,&#34;g&#34;:0.91031211614608765,&#34;b&#34;:0.90557742118835449,&#34;a&#34;:1.0},&#34;position&#34;:0.250},{&#34;color&#34;:{&#34;r&#34;:0.62888628244400024,&#34;g&#34;:0.87944775819778442,&#34;b&#34;:0.89350777864456177,&#34;a&#34;:1.0},&#34;position&#34;:0.50},{&#34;color&#34;:{&#34;r&#34;:0.17338141798973083,&#34;g&#34;:0.69287389516830444,&#34;b&#34;:0.77552086114883423,&#34;a&#34;:1.0},&#34;position&#34;:0.750},{&#34;color&#34;:{&#34;r&#34;:0.18352760374546051,&#34;g&#34;:0.45334574580192566,&#34;b&#34;:0.85807293653488159,&#34;a&#34;:1.0},&#34;position&#34;:1.0}],&#34;stopsVar&#34;:[{&#34;color&#34;:{&#34;r&#34;:0.82094663381576538,&#34;g&#34;:0.96248370409011841,&#34;b&#34;:0.87520253658294678,&#34;a&#34;:1.0},&#34;position&#34;:0.0},{&#34;color&#34;:{&#34;r&#34;:0.69679605960845947,&#34;g&#34;:0.91031211614608765,&#34;b&#34;:0.90557742118835449,&#34;a&#34;:1.0},&#34;position&#34;:0.250},{&#34;color&#34;:{&#34;r&#34;:0.62888628244400024,&#34;g&#34;:0.87944775819778442,&#34;b&#34;:0.89350777864456177,&#34;a&#34;:1.0},&#34;position&#34;:0.50},{&#34;color&#34;:{&#34;r&#34;:0.17338141798973083,&#34;g&#34;:0.69287389516830444,&#34;b&#34;:0.77552086114883423,&#34;a&#34;:1.0},&#34;position&#34;:0.750},{&#34;color&#34;:{&#34;r&#34;:0.18352760374546051,&#34;g&#34;:0.45334574580192566,&#34;b&#34;:0.85807293653488159,&#34;a&#34;:1.0},&#34;position&#34;:1.0}],&#34;transform&#34;:{&#34;m00&#34;:173.99998474121094,&#34;m01&#34;:-126.85142517089844,&#34;m02&#34;:118.92571258544922,&#34;m10&#34;:84.999977111816406,&#34;m11&#34;:259.67239379882812,&#34;m12&#34;:4.1638140678405762},&#34;opacity&#34;:1.0,&#34;blendMode&#34;:&#34;NORMAL&#34;,&#34;visible&#34;:true}"/>
<path d="M173.9 118.61C172.52 119.15 171.53 119.06 170.9 118.38C170.67 118.115 170.527 117.786 170.49 117.438C170.452 117.089 170.522 116.738 170.69 116.43C170.937 116.039 171.319 115.753 171.764 115.627C172.209 115.501 172.685 115.545 173.1 115.75C173.177 115.544 173.191 115.319 173.139 115.105C173.088 114.892 172.973 114.698 172.81 114.55C172.401 114.118 171.967 113.71 171.51 113.33C171.23 113.08 170.88 112.88 171.04 112.43C171.14 112.15 171.84 111.98 172.21 112.2C173.69 113.06 174.83 114.2 174.79 116.05C174.766 116.679 174.926 117.301 175.25 117.84C175.716 118.772 175.962 119.798 175.97 120.84C175.97 121.16 176.03 121.48 176.07 121.84C176.21 121.884 176.354 121.914 176.5 121.93C177.59 121.93 178.69 121.85 179.78 121.85C180.25 121.85 180.54 121.74 180.63 121.23C180.77 120.48 180.99 119.74 181.11 118.99C181.137 118.679 181.12 118.366 181.06 118.06C180.437 117.823 179.835 117.535 179.26 117.2C178.984 117.008 178.768 116.742 178.637 116.432C178.506 116.122 178.465 115.782 178.52 115.45C178.53 115.166 178.634 114.894 178.815 114.675C178.996 114.457 179.243 114.304 179.52 114.24C179.995 114.176 180.475 114.176 180.95 114.24C180.865 113.467 180.608 112.722 180.2 112.06C180.11 111.89 179.98 111.73 179.87 111.56C179.81 111.486 179.766 111.401 179.741 111.31C179.716 111.219 179.709 111.123 179.722 111.029C179.736 110.936 179.768 110.846 179.817 110.765C179.867 110.684 179.932 110.614 180.01 110.56C180.34 110.3 180.65 110.56 180.89 110.76C181.728 111.675 182.29 112.809 182.51 114.03C182.661 114.421 182.734 114.837 182.723 115.256C182.713 115.675 182.62 116.087 182.45 116.47C182.394 116.629 182.394 116.801 182.45 116.96C182.695 118.51 182.554 120.097 182.04 121.58C182.04 121.73 181.97 121.89 181.92 122.12L185.73 123.26C186.677 122.139 187.36 120.82 187.73 119.4C187.517 119.285 187.31 119.158 187.11 119.02C186.834 118.834 186.609 118.582 186.456 118.286C186.302 117.991 186.225 117.663 186.23 117.33C186.211 117.077 186.271 116.825 186.402 116.608C186.533 116.392 186.728 116.221 186.96 116.12C187.177 116.027 187.418 116.008 187.647 116.063C187.876 116.119 188.08 116.248 188.23 116.43C188.37 116.57 188.49 116.72 188.68 116.94C188.913 116.57 189.07 116.158 189.143 115.727C189.215 115.296 189.2 114.855 189.1 114.43C188.99 113.94 188.8 113.43 188.66 113C188.57 112.71 188.48 112.36 188.83 112.21C188.916 112.163 189.01 112.134 189.107 112.125C189.204 112.115 189.302 112.125 189.395 112.154C189.489 112.183 189.575 112.23 189.65 112.293C189.724 112.356 189.786 112.433 189.83 112.52C190.241 113.15 190.511 113.861 190.623 114.604C190.736 115.348 190.687 116.107 190.48 116.83C190.356 117.315 190.132 117.768 189.82 118.16C189.422 118.647 189.169 119.236 189.09 119.86C188.741 121.045 188.178 122.157 187.43 123.14C187.3 123.36 187.14 123.57 186.94 123.87C187.84 124.49 188.7 125.11 189.58 125.68C191.664 126.994 193.587 128.548 195.31 130.31C196.07 131.09 196.76 131.94 197.47 132.78C197.84 133.2 197.66 133.6 197.31 133.92C196.367 134.85 195.365 135.719 194.31 136.52C192.951 137.503 191.509 138.367 190 139.1C187.63 140.21 185.32 141.54 182.72 142.1C180.831 142.486 178.915 142.733 176.99 142.84C175.662 142.869 174.337 142.717 173.05 142.39C170.733 141.922 168.483 141.17 166.35 140.15C164.163 139.043 162.003 137.867 159.87 136.62C158.734 135.935 157.648 135.169 156.62 134.33C155.8 133.67 155.81 133.4 156.48 132.6C156.925 132.063 157.42 131.571 157.96 131.13C159.44 129.95 160.9 128.75 162.46 127.68C164.172 126.483 165.944 125.375 167.77 124.36C169.657 123.367 171.678 122.653 173.77 122.24C174.54 122.07 174.58 122.01 174.61 121.24C174.642 120.312 174.394 119.396 173.9 118.61ZM157.57 133.25C157.973 133.636 158.408 133.988 158.87 134.3C161.45 135.74 163.87 137.41 166.62 138.62C169.038 139.718 171.561 140.569 174.15 141.16C176.139 141.495 178.172 141.465 180.15 141.07C181.308 140.935 182.45 140.687 183.56 140.33C185.43 139.67 187.28 138.91 189.09 138.09C190.873 137.344 192.553 136.372 194.09 135.2C194.78 134.65 195.41 134.04 196.09 133.46C194.19 131.07 191.09 128.35 190.09 128.18C190.09 128.58 190.09 128.98 190.09 129.38C190.093 130.652 189.795 131.906 189.22 133.04C187.02 137.04 183.78 139.51 179.06 139.75C177.848 139.883 176.622 139.703 175.5 139.227C174.377 138.751 173.396 137.994 172.65 137.03C171.642 135.918 170.915 134.581 170.53 133.13C170.038 130.803 170.173 128.388 170.92 126.13C171.1 125.61 171.24 125.13 171.42 124.52C168.29 124.71 159.9 130.72 157.57 133.25ZM172.76 117.38C172.56 117.05 172.34 116.97 172.08 117.18C172.058 117.22 172.047 117.264 172.047 117.31C172.047 117.355 172.058 117.4 172.08 117.44C172.26 117.68 172.49 117.63 172.76 117.38ZM180.33 116.38L180.46 116.32C180.456 116.218 180.429 116.119 180.38 116.03C180.291 115.943 180.19 115.868 180.08 115.81L179.97 115.93L180.33 116.38Z" fill="black"/>
<path d="M153.27 96.55C151.81 96.63 150.35 96.74 148.89 96.78C148.13 96.78 147.36 96.62 146.6 96.63C144.48 96.63 142.35 96.77 140.23 96.81C138.11 96.85 135.91 96.87 133.74 96.9C130.52 96.9 127.29 97.02 124.07 97.05C121.61 97.05 119.14 97.05 116.68 97.05C113.79 97.05 110.89 97.05 108.01 96.8C105.041 96.7173 102.12 96.037 99.42 94.8C97.6024 93.9675 96.1345 92.5236 95.272 90.7201C94.4095 88.9165 94.2071 86.8675 94.7 84.93C94.8581 83.985 95.2053 83.0817 95.7208 82.2741C96.2363 81.4665 96.9094 80.7713 97.7 80.23C99.3158 79.0866 101.251 78.4813 103.23 78.5C105.325 78.6109 107.38 79.1129 109.29 79.98C111.135 80.829 113.13 81.3047 115.16 81.38C116.703 81.3381 118.189 80.7821 119.38 79.8C120.63 78.87 121.77 77.8 122.97 76.8C124.55 75.48 126.09 74.1 127.74 72.87C129.159 71.7566 130.778 70.9249 132.51 70.42C133.8 70.0639 135.162 70.0686 136.45 70.4336C137.737 70.7986 138.899 71.5099 139.81 72.49C140.712 73.6476 141.391 74.9634 141.81 76.37C142.304 77.7959 143.214 79.041 144.423 79.9447C145.631 80.8484 147.083 81.3692 148.59 81.44C151.04 81.69 153.49 81.89 155.92 82.26C157.544 82.4891 159.099 83.0655 160.48 83.95C162.537 85.2572 164.227 87.0676 165.39 89.21C165.74 89.8354 165.952 90.5287 166.01 91.243C166.069 91.9573 165.973 92.6759 165.73 93.35C165.521 93.9456 165.129 94.4601 164.61 94.82C163.124 95.7924 161.386 96.3102 159.61 96.31C157.52 96.44 155.43 96.51 153.34 96.61L153.27 96.55ZM157.45 94.92V94.73C158.18 94.73 158.92 94.73 159.64 94.73C160.845 94.7357 162.035 94.4546 163.11 93.91C163.4 93.7941 163.662 93.618 163.879 93.3933C164.096 93.1687 164.263 92.9006 164.369 92.6067C164.475 92.3128 164.517 91.9999 164.493 91.6885C164.469 91.377 164.38 91.0742 164.23 90.8C163.624 89.1473 162.62 87.6695 161.306 86.4974C159.993 85.3253 158.411 84.495 156.7 84.08C154.434 83.5267 152.12 83.1919 149.79 83.08C148.069 83.0123 146.375 82.6328 144.79 81.96C143.54 81.5294 142.48 80.6774 141.79 79.55C140.99 78.06 140.18 76.55 139.44 75.05C139.015 73.9337 138.218 72.9984 137.183 72.4025C136.148 71.8066 134.939 71.5867 133.76 71.78C132.443 72.0013 131.186 72.4952 130.07 73.23C128.066 74.4827 126.19 75.9297 124.47 77.55C123.06 78.77 121.69 80.05 120.21 81.17C119.004 82.1019 117.579 82.7089 116.072 82.933C114.565 83.1571 113.025 82.9908 111.6 82.45C109.87 81.88 108.15 81.25 106.41 80.68C104.698 80.1011 102.867 79.9703 101.09 80.3C99.627 80.5462 98.3196 81.358 97.45 82.56C96.8329 83.4503 96.4152 84.4634 96.2253 85.5299C96.0355 86.5964 96.078 87.6914 96.35 88.74C96.5363 89.9008 97.1194 90.961 98 91.74C99.759 93.2356 101.892 94.2243 104.17 94.6C106.03 94.9599 107.916 95.1607 109.81 95.2C111.81 95.2 113.72 95.37 115.68 95.4C118.37 95.4 121.06 95.4 123.75 95.4C126.07 95.4 128.4 95.4 130.75 95.4C132.14 95.4 133.54 95.31 134.93 95.27C136.79 95.27 138.65 95.16 140.51 95.12C142.77 95.07 145.04 95.01 147.3 94.99C148.36 94.99 149.43 95.08 150.49 95.06C151.55 95.04 152.4 94.9 153.36 94.87C154.73 94.9 156.09 94.92 157.45 94.92Z" fill="black"/>
<path d="M131.31 126.78C131.52 126.941 131.696 127.142 131.83 127.37C132.16 128.02 132.41 128.71 132.7 129.37C132.857 129.835 133.119 130.257 133.466 130.604C133.813 130.951 134.235 131.213 134.7 131.37L134.88 131.46C135.059 131.504 135.218 131.607 135.332 131.752C135.446 131.897 135.509 132.076 135.51 132.26C135.501 132.445 135.433 132.623 135.316 132.767C135.199 132.911 135.039 133.013 134.86 133.06C134.31 133.3 133.74 133.46 133.18 133.67C132.586 133.85 132.068 134.221 131.707 134.726C131.345 135.23 131.16 135.84 131.18 136.46C131.18 136.91 131.08 137.24 130.55 137.3C130.02 137.36 129.75 137.23 129.64 136.63C129.443 135.857 129.104 135.128 128.64 134.48C128.232 133.873 127.66 133.394 126.99 133.1C126.51 132.86 125.88 132.71 125.9 132.1C125.92 131.49 126.56 131.34 127.05 131.16C127.716 130.936 128.306 130.532 128.755 129.991C129.204 129.451 129.493 128.796 129.59 128.1C129.699 127.725 129.924 127.395 130.233 127.158C130.543 126.92 130.92 126.788 131.31 126.78ZM130.16 134L132.59 132.1L130.73 129.49C130.367 130.596 129.609 131.529 128.6 132.11L130.16 134Z" fill="black"/>
<path d="M217.06 144.1C216.879 144.328 216.671 144.533 216.44 144.71C216.116 144.892 215.782 145.056 215.44 145.2C215.129 145.361 214.855 145.584 214.635 145.856C214.415 146.128 214.253 146.443 214.16 146.78C214.145 146.944 214.09 147.102 214 147.24C213.782 147.469 213.515 147.646 213.22 147.76C212.87 147.83 212.61 147.58 212.47 147.23C212.304 146.834 212.117 146.447 211.91 146.07C211.757 145.774 211.538 145.518 211.269 145.322C211 145.125 210.688 144.995 210.36 144.94C210.132 144.908 209.911 144.833 209.71 144.72C209.05 144.32 209.09 143.65 209.79 143.29L211.38 142.48C211.639 142.337 211.863 142.138 212.036 141.897C212.209 141.657 212.327 141.381 212.38 141.09C212.46 140.72 212.55 140.34 213 140.29C213.45 140.24 213.72 140.55 213.91 140.93C214.1 141.31 214.25 141.5 214.39 141.8C214.545 142.168 214.79 142.492 215.103 142.74C215.416 142.988 215.786 143.153 216.18 143.22C216.69 143.29 216.94 143.54 217.06 144.1ZM214.2 144.1L213.13 142.92L211.95 143.86L213.31 144.97L214.2 144.1Z" fill="black"/>
<path d="M140.65 121C140.97 121.3 141.27 121.45 141.36 121.69C141.556 122.202 141.852 122.669 142.232 123.064C142.611 123.459 143.066 123.774 143.57 123.99C144.19 124.27 144.16 124.87 143.57 125.19C143.34 125.32 143.08 125.38 142.84 125.49C142.512 125.609 142.214 125.798 141.965 126.043C141.717 126.288 141.524 126.584 141.4 126.91C141.31 127.18 140.98 127.58 140.79 127.56C140.624 127.534 140.466 127.47 140.329 127.373C140.192 127.275 140.08 127.148 140 127C139.869 126.571 139.623 126.186 139.288 125.888C138.952 125.59 138.541 125.39 138.1 125.31C137.917 125.277 137.752 125.181 137.633 125.038C137.514 124.896 137.449 124.716 137.45 124.53C137.45 124.12 137.76 123.97 138.07 123.83L138.6 123.55C138.942 123.397 139.245 123.17 139.488 122.884C139.73 122.599 139.905 122.262 140 121.9C140.07 121.6 140.38 121.36 140.65 121ZM139.6 124.39L140.7 125.31L141.56 124.54L140.56 123.45L139.6 124.39Z" fill="black"/>
<path d="M264 203.12C263.92 203.54 263.87 203.97 263.75 204.38C263.379 205.818 262.745 207.174 261.88 208.38C261.497 208.952 260.961 209.405 260.334 209.688C259.706 209.971 259.012 210.072 258.33 209.98C258.052 209.974 257.779 209.903 257.533 209.772C257.287 209.641 257.076 209.454 256.916 209.226C256.756 208.998 256.653 208.736 256.613 208.46C256.574 208.185 256.6 207.904 256.69 207.64C256.993 206.521 257.384 205.427 257.86 204.37C258.17 203.67 258.545 203 258.98 202.37C259.297 201.864 259.673 201.397 260.1 200.98C260.397 200.658 260.785 200.436 261.213 200.343C261.641 200.25 262.086 200.291 262.49 200.46C262.896 200.62 263.247 200.894 263.501 201.249C263.754 201.603 263.9 202.024 263.92 202.46C263.935 202.656 263.935 202.854 263.92 203.05L264 203.12Z" fill="white"/>
<path d="M157.57 133.25C159.9 130.72 168.29 124.71 171.35 124.52C171.17 125.08 171.03 125.61 170.85 126.13C170.103 128.388 169.968 130.803 170.46 133.13C170.845 134.581 171.572 135.918 172.58 137.03C173.326 137.994 174.307 138.751 175.43 139.227C176.552 139.703 177.778 139.883 178.99 139.75C183.71 139.51 186.99 137.04 189.15 133.04C189.725 131.906 190.023 130.652 190.02 129.38C190.02 128.98 190.02 128.58 190.02 128.18C191.02 128.35 194.12 131.07 196.02 133.46C195.36 134.04 194.73 134.65 194.02 135.2C192.483 136.373 190.803 137.344 189.02 138.09C187.21 138.91 185.36 139.67 183.49 140.33C182.38 140.687 181.238 140.935 180.08 141.07C178.102 141.465 176.069 141.495 174.08 141.16C171.491 140.569 168.968 139.718 166.55 138.62C163.82 137.41 161.38 135.74 158.8 134.3C158.362 133.985 157.95 133.633 157.57 133.25Z" fill="white"/>
<path d="M172.76 117.38C172.49 117.63 172.26 117.68 172.04 117.44C172.018 117.4 172.007 117.355 172.007 117.31C172.007 117.265 172.018 117.22 172.04 117.18C172.34 117 172.56 117.05 172.76 117.38Z" fill="white"/>
<path d="M180.33 116.33L179.97 115.88L180.08 115.76C180.19 115.818 180.291 115.893 180.38 115.98C180.429 116.069 180.456 116.168 180.46 116.27L180.33 116.33Z" fill="white"/>
<path d="M265.92 134.72L261.64 135.02C261.429 135.075 261.207 135.068 261 135C260.737 134.826 260.54 134.569 260.44 134.27C260.44 134.13 260.78 133.78 261.01 133.73C261.884 133.539 262.769 133.402 263.66 133.32C265.55 133.19 267.44 133.12 269.32 133.04C269.721 133.042 270.122 133.069 270.52 133.12C270.7 133.12 270.873 133.192 271.001 133.319C271.128 133.447 271.2 133.62 271.2 133.8C271.2 133.98 271.128 134.153 271.001 134.281C270.873 134.408 270.7 134.48 270.52 134.48C269.47 134.58 268.41 134.68 267.35 134.75C266.84 134.75 266.38 134.72 265.92 134.72Z" fill="black"/>
<path d="M260.6 127.6C260.04 127.65 259.48 127.73 258.92 127.74C258.76 127.74 258.6 127.59 258.43 127.5C258.54 127.32 258.6 127.02 258.75 126.97C259.475 126.735 260.217 126.557 260.97 126.44C263.55 126.12 266.12 125.83 268.7 125.56C269.42 125.48 269.77 125.69 269.79 126.12C269.81 126.55 269.46 126.9 268.79 126.96C266.91 127.12 265.01 127.24 263.13 127.4C262.3 127.47 261.48 127.6 260.65 127.69L260.6 127.6Z" fill="black"/>
<path d="M264.15 129.5C264.24 129.5 264.41 129.45 264.5 129.5C264.721 129.607 264.91 129.768 265.05 129.97C265.084 130.039 265.101 130.116 265.1 130.193C265.099 130.27 265.081 130.346 265.046 130.414C265.011 130.483 264.961 130.543 264.899 130.589C264.837 130.635 264.766 130.666 264.69 130.68C264.439 130.751 264.181 130.791 263.92 130.8L261.44 130.99C261.3 130.99 261.14 131.05 261.04 130.99C260.77 130.85 260.36 130.7 260.29 130.46C260.17 130.04 260.64 129.93 260.94 129.89C262 129.74 263.05 129.63 264.15 129.5Z" fill="black"/>
<defs>
<clipPath id="paint0_diamond_119_44_clip_path"><path d="M215.6 224.72C216.11 223.07 216.6 221.47 217.1 219.91C217.72 218.15 218.4 216.42 219.1 214.7C220.27 211.88 221.52 209.09 222.67 206.25C223.47 204.25 224.17 202.25 224.87 200.25C225.204 199.488 225.414 198.678 225.49 197.85C225.421 196.556 225.257 195.27 225 194C224.643 191.836 224.146 189.699 223.51 187.6C222.7 184.86 222.1 182.05 221.21 179.34C220.026 175.668 218.62 172.071 217 168.57C215.998 166.255 214.747 164.055 213.27 162.01C211.948 160.296 210.378 158.789 208.61 157.54C207.259 156.628 205.846 155.813 204.38 155.1C203.058 154.335 201.661 153.708 200.21 153.23C197.508 152.473 194.768 151.862 192 151.4C188.362 150.829 184.682 150.575 181 150.64C176.141 150.613 171.284 150.847 166.45 151.34C162.75 151.79 159.07 152.34 155.45 153.15C154.08 153.45 152.72 153.77 151.36 154.06C147.647 154.693 144.061 155.922 140.74 157.7C138.459 158.953 136.413 160.59 134.69 162.54C133.559 163.848 132.514 165.228 131.56 166.67C130.746 167.924 130.075 169.266 129.56 170.67C128.678 173.005 128.009 175.415 127.56 177.87C127.22 179.87 126.78 181.87 126.56 183.97C126.34 186.07 126.17 188.2 126.03 190.32C125.91 192.01 125.87 193.71 125.81 195.41C125.75 196.87 125.68 198.33 125.65 199.79C125.575 201.052 125.575 202.318 125.65 203.58C125.89 206.19 126.2 208.8 126.55 211.41C126.81 213.25 127.1 215.1 127.5 216.91C128.081 219.175 129.142 221.29 130.61 223.11C130.859 223.507 131.154 223.873 131.49 224.2C132.666 225.239 134.065 225.992 135.58 226.4C137.484 226.895 139.443 227.144 141.41 227.14C143.08 227.14 144.74 227.03 146.41 226.94C147.81 226.86 149.21 226.8 150.59 226.62C153 226.32 155.4 225.95 157.8 225.56C159.3 225.32 160.8 225.07 162.29 224.7C164.91 224.05 167.49 223.28 170.1 222.61C172.22 222.06 174.37 221.61 176.5 221.07C176.825 220.968 177.142 220.845 177.45 220.7C177.461 220.597 177.461 220.493 177.45 220.39C177.41 220.263 177.36 220.139 177.3 220.02C176.308 217.977 175.695 215.772 175.49 213.51C175.067 210.307 174.993 207.068 175.27 203.85C175.251 203.707 175.207 203.568 175.14 203.44C174.82 203.44 174.52 203.49 174.23 203.53C172.843 203.67 171.453 203.82 170.06 203.98C167.37 204.27 164.69 204.5 162.06 204.86C158.79 205.3 155.55 205.86 152.3 206.36C151.12 206.55 149.96 206.84 148.79 207.07C148.498 207.136 148.199 207.163 147.9 207.15C147.74 207.15 147.45 206.94 147.47 206.86C147.509 206.653 147.618 206.465 147.78 206.33C147.95 206.22 148.141 206.146 148.34 206.11L149.67 205.66C149.722 205.461 149.752 205.256 149.76 205.05C149.7 203.65 149.63 202.26 149.53 200.86C149.37 198.64 149.12 196.42 149.02 194.19C148.9 191.53 148.91 188.87 148.86 186.19C148.814 185.962 148.814 185.728 148.86 185.5C148.95 185.29 149.17 185.02 149.36 184.99C149.486 184.991 149.61 185.022 149.722 185.081C149.833 185.14 149.929 185.226 150 185.33C150.151 185.624 150.233 185.949 150.24 186.28C150.24 187.47 150.24 188.66 150.32 189.85C150.4 191.97 150.5 194.1 150.61 196.22C150.73 198.713 150.857 201.2 150.99 203.68C150.99 204.2 150.99 204.68 151.08 205.29C153.18 204.97 155.18 204.65 157.19 204.36C159.92 203.95 162.64 203.51 165.39 203.18C169.51 202.69 173.65 202.23 177.79 201.85C180.51 201.6 183.25 201.57 185.96 201.3C188.91 201.052 191.87 200.958 194.83 201.02C196.26 201.02 197.68 201.26 199.11 201.37C200.67 201.453 202.203 201.808 203.64 202.42C203.96 202.57 204.3 202.66 204.75 202.83C204.68 202.33 204.64 201.98 204.58 201.62C204.49 201.06 204.38 200.51 204.29 199.95C203.95 197.88 203.64 195.81 203.29 193.74C202.85 191.09 202.37 188.45 201.91 185.81C201.843 185.416 201.799 185.019 201.78 184.62C201.78 184.27 201.78 183.91 202.18 183.8C202.58 183.69 202.86 184.02 202.99 184.37C203.127 184.778 203.234 185.196 203.31 185.62C203.31 185.85 203.37 186.08 203.41 186.31C204.163 190.843 204.917 195.373 205.67 199.9C205.86 201.05 206.04 202.2 206.13 203.36C206.149 203.754 206.304 204.129 206.57 204.42C207.239 205.111 207.845 205.861 208.38 206.66C209.38 208.28 210.23 209.97 211.09 211.66C211.67 212.78 212.09 213.97 212.7 215.09C213.741 217.065 214.467 219.191 214.85 221.39C215 222.247 214.9 223.129 214.56 223.93C214.47 224.16 214.42 224.41 214.32 224.72H215.6Z"/></clipPath><linearGradient id="paint0_diamond_119_44" x1="0" y1="0" x2="500" y2="500" gradientUnits="userSpaceOnUse">
<stop stop-color="#D1F5DF"/>
<stop offset="0.25" stop-color="#B2E8E7"/>
<stop offset="0.5" stop-color="#A0E0E4"/>
<stop offset="0.75" stop-color="#2CB1C6"/>
<stop offset="1" stop-color="#2F74DB"/>
</linearGradient>
</defs>
</svg>
